<?xml version="1.0" encoding="iso-8859-1"?>
<!-- Generator: Adobe Illustrator 16.0.0, SVG Export Plug-In . SVG Version: 6.00 Build 0)  -->
<!DOCTYPE svg PUBLIC "-//W3C//DTD SVG 1.1//EN" "http://www.w3.org/Graphics/SVG/1.1/DTD/svg11.dtd">
<svg version="1.1" id="Capa_1" xmlns="http://www.w3.org/2000/svg" xmlns:xlink="http://www.w3.org/1999/xlink" x="0px" y="0px"
	 width="45.702px" height="45.702px" viewBox="0 0 45.702 45.702" style="enable-background:new 0 0 45.702 45.702;"
	 xml:space="preserve">
<g>
	<g>
		<path d="M22.852,15.343c-4.146,0-7.52,3.374-7.52,7.52c0,4.146,3.373,7.518,7.52,7.518c4.146,0,7.518-3.373,7.518-7.518
			C30.37,18.717,26.999,15.343,22.852,15.343z M22.852,28.385c-3.046,0-5.522-2.478-5.522-5.521c0-3.045,2.477-5.523,5.522-5.523
			s5.521,2.478,5.521,5.523C28.374,25.907,25.897,28.385,22.852,28.385z"/>
		<path d="M42.208,19.353h-1.606c-1.414-7.177-7.092-12.834-14.27-14.244V3.494c0-1.93-1.568-3.494-3.498-3.494
			c-1.929,0-3.498,1.564-3.498,3.494V5.11C12.159,6.518,6.513,12.176,5.099,19.353H3.494C1.564,19.353,0,20.921,0,22.852
			c0,1.93,1.564,3.498,3.494,3.498h1.601c1.406,7.176,7.064,12.855,14.241,14.267v1.592c0,1.931,1.569,3.494,3.498,3.494
			c1.93,0,3.498-1.563,3.498-3.494v-1.592C33.51,39.205,39.2,33.525,40.606,26.35h1.603c1.93,0,3.493-1.568,3.493-3.498
			C45.702,20.921,44.137,19.353,42.208,19.353z M26.333,36.525v-0.838c0-1.93-1.568-3.494-3.498-3.494
			c-1.929,0-3.498,1.564-3.498,3.494v0.838c-4.945-1.273-8.881-5.23-10.15-10.176h0.829c1.929,0,3.494-1.568,3.494-3.498
			c0-1.931-1.565-3.499-3.494-3.499H9.192c1.275-4.945,5.199-8.881,10.145-10.152v0.814c0,1.93,1.569,3.494,3.498,3.494
			c1.93,0,3.498-1.564,3.498-3.494V9.201c5.006,1.271,8.901,5.207,10.178,10.152H35.69c-1.93,0-3.494,1.568-3.494,3.499
			c0,1.93,1.564,3.498,3.494,3.498h0.827C35.247,31.294,31.338,35.251,26.333,36.525z"/>
	</g>
</g>
<g>
</g>
<g>
</g>
<g>
</g>
<g>
</g>
<g>
</g>
<g>
</g>
<g>
</g>
<g>
</g>
<g>
</g>
<g>
</g>
<g>
</g>
<g>
</g>
<g>
</g>
<g>
</g>
<g>
</g>
</svg>
