<?xml version="1.0" encoding="iso-8859-1"?>
<!-- Generator: Adobe Illustrator 19.0.0, SVG Export Plug-In . SVG Version: 6.00 Build 0)  -->
<svg version="1.1" id="Layer_1" xmlns="http://www.w3.org/2000/svg" xmlns:xlink="http://www.w3.org/1999/xlink" x="0px" y="0px"
	 viewBox="0 0 321.553 321.553" style="enable-background:new 0 0 321.553 321.553;" xml:space="preserve">
<g>
	<g>
		<path d="M160.83,100.617c-22.187,0-40.32,15.04-40.32,33.493s18.133,33.493,40.32,33.493v-13.867
			c-14.613,0-26.453-8.853-26.453-19.627c0-10.773,11.84-19.627,26.453-19.627s26.453,8.853,26.453,19.627h13.867
			C201.15,115.657,183.017,100.617,160.83,100.617z"/>
	</g>
</g>
<g>
	<g>
		<path d="M160.83,153.737v13.867c14.613,0,26.453,8.853,26.453,19.627s-11.84,19.627-26.453,19.627s-26.453-8.853-26.453-19.627
			H120.51c0,18.453,18.133,33.493,40.32,33.493s40.32-15.04,40.32-33.493C201.15,168.777,183.017,153.737,160.83,153.737z"/>
	</g>
</g>
<g>
	<g>
		<rect x="153.897" y="87.07" width="13.867" height="20.48"/>
	</g>
</g>
<g>
	<g>
		<rect x="153.897" y="213.79" width="13.867" height="20.48"/>
	</g>
</g>
<g>
	<g>
		<path d="M313.897,170.803c-5.227-5.76-5.227-14.293,0-19.947c6.4-6.933,8.96-16.533,6.933-25.707
			c-2.133-9.28-8.747-16.853-17.6-20.373c-7.36-2.987-11.2-10.667-8.96-18.027c2.56-8.64,0.96-17.92-4.48-25.173
			c-5.547-7.467-14.08-11.733-23.36-11.733c-0.747,0-1.387,0.107-2.027,0.107c-8,0.427-14.933-5.013-16.213-12.587
			c-2.347-13.973-14.507-24.213-28.907-24.213c-4.907,0-9.92,1.28-14.293,3.733c-2.347,1.387-5.013,2.027-7.68,2.027
			c-5.013,0-9.707-2.453-12.587-6.507c-5.547-7.787-14.293-12.267-24-12.267s-18.347,4.373-24,12.16
			c-2.773,4.053-7.573,6.4-12.587,6.4c-2.667,0-5.227-0.64-7.573-1.92c-4.373-2.453-9.387-3.733-14.293-3.733
			c-14.507,0-26.667,10.133-28.907,24.213C72.19,44.51,65.79,49.843,58.217,49.843c-0.32,0-0.747,0-1.067,0
			c-0.64-0.107-1.28-0.107-1.92-0.107c-9.28,0-18.133,4.48-23.573,11.84s-7.04,16.533-4.373,25.28c2.24,7.253-1.6,15.04-8.96,17.92
			c-8.96,3.52-15.467,11.093-17.6,20.373c-2.133,9.067,0.533,18.667,6.933,25.6c5.227,5.76,5.227,14.293,0,19.947
			c-6.4,6.933-8.96,16.533-6.933,25.707c2.133,9.28,8.747,16.853,17.6,20.373c7.36,2.987,11.2,10.667,8.96,18.027
			c-2.56,8.747-0.96,17.92,4.48,25.28c5.653,7.467,14.187,11.733,23.573,11.733c0.64,0,1.173-0.107,1.813-0.107
			c8-0.427,14.933,5.013,16.213,12.587c2.347,14.08,14.507,24.213,28.907,24.213c4.907,0,9.92-1.28,14.293-3.733
			c2.347-1.387,5.013-2.027,7.68-2.027c5.013,0,9.707,2.347,12.587,6.4c5.547,7.68,14.507,12.267,24,12.267
			c9.6,0,18.56-4.587,23.893-12.267c2.773-4.053,7.467-6.4,12.587-6.4c2.667,0,5.227,0.64,7.573,1.92
			c4.373,2.453,9.387,3.733,14.293,3.733c14.507,0,26.667-10.133,28.907-24.213c1.173-7.253,7.573-12.587,15.147-12.587
			c0.32,0,0.747,0,1.067,0c0.64,0.107,1.28,0.107,1.92,0.107c9.387,0,18.027-4.267,23.573-11.733c5.44-7.36,7.147-16.533,4.48-25.28
			c-2.24-7.253,1.6-15.04,8.96-17.92c8.96-3.52,15.467-11.093,17.6-20.373C322.963,187.337,320.297,177.737,313.897,170.803z
			 M303.443,179.977c3.413,3.52,4.693,8.32,3.627,13.12c-1.067,4.8-4.373,8.64-9.173,10.56c-14.08,5.653-21.44,20.693-17.067,34.88
			c1.28,4.48,0.427,9.28-2.347,13.013c-2.88,3.947-7.36,6.187-12.373,6.187c-0.32,0-0.64,0-0.96,0
			c-15.147-1.067-28.373,9.493-30.72,24.107c-1.28,8.213-8.64,12.587-15.147,12.587c-2.667,0-5.227-0.64-7.573-1.92
			c-4.373-2.453-9.28-3.733-14.293-3.733c-9.493,0-18.453,4.587-23.893,12.267c-2.88,4.053-7.467,6.4-12.587,6.4
			c-5.227,0-9.813-2.347-12.693-6.4c-5.44-7.68-14.4-12.267-23.893-12.267c-5.013,0-9.92,1.28-14.4,3.52
			c-2.347,1.387-4.907,2.027-7.573,2.027c-6.507,0-13.76-4.267-15.147-12.587c-2.347-14.08-14.507-24.213-29.013-24.213
			c-0.533,0-1.067,0-1.707,0c-5.333,0.32-10.347-2.027-13.44-6.187c-2.88-3.733-3.627-8.427-2.347-12.907
			c4.373-14.293-2.88-29.333-17.067-34.987c-4.693-1.92-8.107-5.76-9.173-10.56c-1.067-4.8,0.213-9.6,3.627-13.227
			c10.24-10.987,10.24-27.627,0-38.72c-3.413-3.52-4.693-8.32-3.627-13.12c1.067-4.8,4.373-8.64,9.173-10.56
			c14.08-5.653,21.44-20.587,17.067-34.88c-1.387-4.48-0.533-9.173,2.24-12.907c2.88-3.947,7.36-6.187,12.373-6.187
			c0.32,0,0.64,0,0.96,0c15.147,1.067,28.373-9.493,30.72-24.107c1.28-8.213,8.64-12.587,15.147-12.587
			c2.667,0,5.227,0.64,7.573,1.92c4.373,2.453,9.28,3.733,14.293,3.733c9.493,0,18.453-4.587,23.893-12.16
			c2.987-4.053,7.573-6.4,12.693-6.4s9.707,2.453,12.693,6.507c5.44,7.68,14.4,12.267,23.893,12.267c4.907,0,9.92-1.28,14.293-3.733
			c2.347-1.387,4.907-2.027,7.573-2.027c6.507,0,13.76,4.267,15.147,12.587c2.347,14.08,14.507,24.213,29.013,24.213
			c0.64,0,1.173,0,1.813,0c5.44-0.427,10.347,1.92,13.44,6.08c2.88,3.733,3.627,8.427,2.347,12.907
			c-4.373,14.293,2.88,29.333,17.067,34.987c4.693,1.92,8.107,5.76,9.173,10.56c1.067,4.8-0.213,9.6-3.627,13.227
			C293.203,152.243,293.203,168.883,303.443,179.977z"/>
	</g>
</g>
<g>
	<g>
		<path d="M160.83,46.75c-62.827,0-113.92,51.093-113.92,113.92s51.093,113.92,113.92,113.92s113.92-51.093,113.92-113.92
			S223.657,46.75,160.83,46.75z M160.83,260.723c-55.147,0-100.053-44.907-100.053-100.053S105.683,60.617,160.83,60.617
			s100.053,44.907,100.053,100.053S215.977,260.723,160.83,260.723z"/>
	</g>
</g>
<g>
</g>
<g>
</g>
<g>
</g>
<g>
</g>
<g>
</g>
<g>
</g>
<g>
</g>
<g>
</g>
<g>
</g>
<g>
</g>
<g>
</g>
<g>
</g>
<g>
</g>
<g>
</g>
<g>
</g>
</svg>
