<?xml version="1.0" encoding="iso-8859-1"?>
<!-- Generator: Adobe Illustrator 19.0.0, SVG Export Plug-In . SVG Version: 6.00 Build 0)  -->
<svg version="1.1" id="Layer_1" xmlns="http://www.w3.org/2000/svg" xmlns:xlink="http://www.w3.org/1999/xlink" x="0px" y="0px"
	 viewBox="0 0 511.999 511.999" style="enable-background:new 0 0 511.999 511.999;" xml:space="preserve">
<g>
	<g>
		<path d="M510.798,460l-45.358-76.397c-1.544-2.601-4.346-4.195-7.369-4.195H53.926c-3.024,0-5.824,1.594-7.369,4.195L1.2,460
			c-1.572,2.649-1.602,5.938-0.078,8.615c1.523,2.677,4.367,4.331,7.448,4.331H83.07c4.734,0,8.57-3.837,8.57-8.57
			c0-4.733-3.836-8.57-8.57-8.57H23.626l35.181-59.256h394.386l35.182,59.256H117.35c-4.734,0-8.57,3.837-8.57,8.57
			c0,4.733,3.836,8.57,8.57,8.57h386.081c3.081,0,5.924-1.652,7.445-4.33C512.401,465.939,512.371,462.649,510.798,460z"/>
	</g>
</g>
<g>
	<g>
		<path d="M444.328,348.043l-42.317-71.277c-1.544-2.601-4.346-4.195-7.369-4.195H117.357c-3.024,0-5.824,1.594-7.369,4.195
			L67.67,348.043c-1.572,2.65-1.602,5.939-0.078,8.616c1.523,2.677,4.367,4.331,7.448,4.331h256.819c4.734,0,8.57-3.837,8.57-8.57
			c0-4.733-3.836-8.57-8.57-8.57H90.095l32.142-54.136h267.527l32.141,54.136H366.14c-4.734,0-8.57,3.837-8.57,8.57
			c0,4.733,3.836,8.57,8.57,8.57h70.821c3.081,0,5.924-1.654,7.445-4.332C445.93,353.98,445.9,350.691,444.328,348.043z"/>
	</g>
</g>
<g>
	<g>
		<path d="M317.471,134.372l-54.102-91.123c-1.544-2.601-4.346-4.195-7.369-4.195c-3.024,0-5.824,1.594-7.369,4.195l-54.102,91.123
			c-1.572,2.65-1.602,5.939-0.078,8.616c1.523,2.677,4.367,4.331,7.448,4.331h108.202c3.081,0,5.925-1.654,7.447-4.331
			C319.073,140.31,319.043,137.02,317.471,134.372z M216.954,130.178L256,64.412l39.046,65.765H216.954z"/>
	</g>
</g>
<g>
	<g>
		<path d="M380.898,241.208L338.58,169.93c-1.544-2.601-4.346-4.195-7.369-4.195H180.786c-3.024,0-5.824,1.594-7.369,4.195
			l-42.318,71.278c-1.572,2.649-1.602,5.938-0.078,8.615c1.523,2.677,4.367,4.331,7.448,4.331h48.126c4.734,0,8.57-3.837,8.57-8.57
			s-3.836-8.57-8.57-8.57h-33.071l32.142-54.136h140.668l32.142,54.136H220.07c-4.734,0-8.57,3.837-8.57,8.57s3.836,8.57,8.57,8.57
			h153.462c3.081,0,5.924-1.654,7.445-4.331C382.501,247.146,382.471,243.857,380.898,241.208z"/>
	</g>
</g>
<g>
</g>
<g>
</g>
<g>
</g>
<g>
</g>
<g>
</g>
<g>
</g>
<g>
</g>
<g>
</g>
<g>
</g>
<g>
</g>
<g>
</g>
<g>
</g>
<g>
</g>
<g>
</g>
<g>
</g>
</svg>
