<?xml version="1.0" encoding="iso-8859-1"?>
<!-- Generator: Adobe Illustrator 19.0.0, SVG Export Plug-In . SVG Version: 6.00 Build 0)  -->
<svg version="1.1" id="Capa_1" xmlns="http://www.w3.org/2000/svg" xmlns:xlink="http://www.w3.org/1999/xlink" x="0px" y="0px"
	 viewBox="0 0 470 470" style="enable-background:new 0 0 470 470;" xml:space="preserve">
<g>
	<path d="M190,132.5c-20.678,0-37.5,16.822-37.5,37.5s16.822,37.5,37.5,37.5s37.5-16.822,37.5-37.5S210.678,132.5,190,132.5z
		 M190,192.5c-12.406,0-22.5-10.093-22.5-22.5s10.094-22.5,22.5-22.5s22.5,10.093,22.5,22.5S202.406,192.5,190,192.5z"/>
	<path d="M280,132.5c-20.678,0-37.5,16.822-37.5,37.5s16.822,37.5,37.5,37.5s37.5-16.822,37.5-37.5S300.678,132.5,280,132.5z
		 M280,192.5c-12.406,0-22.5-10.093-22.5-22.5s10.094-22.5,22.5-22.5s22.5,10.093,22.5,22.5S292.406,192.5,280,192.5z"/>
	<path d="M67.5,132.5C46.822,132.5,30,149.322,30,170s16.822,37.5,37.5,37.5S105,190.678,105,170S88.178,132.5,67.5,132.5z
		 M67.5,192.5C55.094,192.5,45,182.407,45,170s10.094-22.5,22.5-22.5S90,157.593,90,170S79.906,192.5,67.5,192.5z"/>
	<circle cx="128.75" cy="170" r="7.5"/>
	<path d="M442.5,102.5h-415C12.337,102.5,0,114.836,0,130v80c0,15.164,12.337,27.5,27.5,27.5h170v35h-33.79
		c-1.755,0-3.453,0.615-4.802,1.738l-60,50c-0.038,0.031-0.07,0.068-0.107,0.1c-0.154,0.134-0.305,0.271-0.448,0.417
		c-0.068,0.069-0.13,0.142-0.194,0.214c-0.11,0.121-0.218,0.243-0.32,0.371c-0.063,0.08-0.122,0.161-0.182,0.243
		c-0.095,0.13-0.187,0.263-0.274,0.399c-0.052,0.081-0.101,0.163-0.15,0.246c-0.086,0.147-0.165,0.297-0.241,0.45
		c-0.039,0.079-0.078,0.157-0.115,0.238c-0.074,0.165-0.141,0.333-0.203,0.504c-0.027,0.074-0.056,0.147-0.081,0.222
		c-0.06,0.182-0.111,0.369-0.157,0.557c-0.017,0.069-0.038,0.136-0.053,0.205c-0.043,0.199-0.074,0.402-0.101,0.607
		c-0.008,0.061-0.021,0.122-0.028,0.183c-0.028,0.265-0.044,0.533-0.044,0.805v30c0,4.142,3.357,7.5,7.5,7.5h262.58
		c4.143,0,7.5-3.358,7.5-7.5v-30c0-0.272-0.016-0.54-0.044-0.805c-0.007-0.062-0.02-0.122-0.028-0.183
		c-0.027-0.205-0.058-0.408-0.101-0.607c-0.015-0.069-0.036-0.137-0.053-0.205c-0.046-0.188-0.097-0.375-0.157-0.557
		c-0.025-0.075-0.054-0.147-0.081-0.221c-0.063-0.171-0.129-0.34-0.204-0.505c-0.036-0.08-0.075-0.158-0.114-0.237
		c-0.076-0.153-0.156-0.303-0.241-0.45c-0.048-0.083-0.098-0.165-0.15-0.246c-0.087-0.137-0.178-0.269-0.274-0.399
		c-0.06-0.082-0.119-0.164-0.182-0.243c-0.102-0.128-0.21-0.25-0.32-0.371c-0.064-0.071-0.126-0.145-0.194-0.214
		c-0.143-0.146-0.293-0.283-0.448-0.417c-0.037-0.032-0.069-0.068-0.107-0.1l-60-50c-1.349-1.123-3.047-1.738-4.802-1.738H272.5V260
		c0-4.142-3.357-7.5-7.5-7.5s-7.5,3.358-7.5,7.5v12.5h-45v-35h230c15.163,0,27.5-12.336,27.5-27.5v-80
		C470,114.836,457.663,102.5,442.5,102.5z M345.575,322.5H180.571c-4.143,0-7.5,3.358-7.5,7.5s3.357,7.5,7.5,7.5H358.79v15H111.21
		v-15h39.361c4.143,0,7.5-3.358,7.5-7.5s-3.357-7.5-7.5-7.5h-26.146l42-35h137.148L345.575,322.5z M455,210
		c0,6.893-5.607,12.5-12.5,12.5h-415c-6.893,0-12.5-5.607-12.5-12.5v-80c0-6.893,5.607-12.5,12.5-12.5h415
		c6.893,0,12.5,5.607,12.5,12.5V210z"/>
</g>
<g>
</g>
<g>
</g>
<g>
</g>
<g>
</g>
<g>
</g>
<g>
</g>
<g>
</g>
<g>
</g>
<g>
</g>
<g>
</g>
<g>
</g>
<g>
</g>
<g>
</g>
<g>
</g>
<g>
</g>
</svg>
