<?xml version="1.0" encoding="utf-8"?>
<!-- Generator: Adobe Illustrator 19.0.0, SVG Export Plug-In . SVG Version: 6.00 Build 0)  -->
<svg version="1.1" id="Layer_1" xmlns="http://www.w3.org/2000/svg" xmlns:xlink="http://www.w3.org/1999/xlink" x="0px" y="0px"
	 viewBox="-703 285 512 512" style="enable-background:new -703 285 512 512;" xml:space="preserve">
<style type="text/css">
	.st0{fill:#FCC434;}
</style>
<g>
	<g>
		<path class="st0" d="M-235.7,504.8c-16.3-44.3-46.7-75.1-85.7-86.8c0,0,0,0,0,0c-37.6-11.3-78.4-3.1-114.9,22.2
			c-2.8-13.7-7.8-26.5-14.6-38.2c18.8-2,36.7-10.3,50.4-24c21.1-21.1,29.4-52.2,21.7-81c-1.2-4.5-4.7-7.9-9.1-9.1
			c-28.9-7.7-59.9,0.6-81,21.7c-13.5,13.5-21.8,31.1-23.9,49.5c-19-11.8-41.5-18.7-65.5-18.7c-7.1,0-12.9,5.8-12.9,12.9
			c0,7.1,5.8,12.9,12.9,12.9c44.2,0,81.7,29.1,94.3,69.2c-34.8-22-73.1-28.6-108.5-18c-39,11.7-69.4,42.5-85.7,86.8
			c-15.8,43-16.4,93.8-1.6,143.2c14.8,49.3,43.2,91.5,80.1,118.7c38,28.1,80.3,37.1,119.3,25.4c4.4-1.3,8.7-2.9,13-4.7
			c4.6,2.1,9.4,3.8,14.2,5.3c11.1,3.3,22.5,5,34,5c28.8,0,58.2-10.3,85.3-30.4c36.9-27.2,65.3-69.4,80.1-118.7
			C-219.3,598.6-219.8,547.8-235.7,504.8z M-467.2,376.3c-2.3-17.7,3.8-35.7,16.5-48.5c12.8-12.8,30.8-18.8,48.5-16.5
			c2.3,17.7-3.8,35.7-16.5,48.5C-431.5,372.5-449.5,378.5-467.2,376.3z M-258.7,640.5c-13.2,44-38.3,81.4-70.7,105.4
			c-31.3,23.1-65.6,30.7-96.6,21.4c-5.3-1.6-10.6-3.7-15.6-6.3c-1.9-1-3.9-1.4-5.9-1.4c-2,0-4,0.5-5.8,1.4
			c-4.7,2.4-9.7,4.3-14.7,5.8c-65.4,19.6-140.5-37.3-167.3-126.8c-26.8-89.5,4.6-178.3,70-197.9c35.6-10.7,75.7,1.1,109.8,32.3
			c0,0,0,0,0,0c2.3,2.1,5.3,3.4,8.7,3.4c3.6,0,6.8-1.5,9.1-3.8c33.9-30.5,73.5-42,108.8-31.4v0C-263.4,462.3-231.9,551-258.7,640.5z
			"/>
	</g>
</g>
<g>
	<g>
		<path class="st0" d="M-544.4,466.8c-2-6.8-9.2-10.7-16.1-8.7c-27.5,8.2-49.5,32.8-60.2,67.3c-10.4,33.2-9.9,72.2,1.4,109.8
			c1.7,5.6,6.8,9.2,12.3,9.2c1.2,0,2.5-0.2,3.7-0.5c6.8-2,10.7-9.2,8.7-16.1c-9.7-32.2-10.2-66.8-1.5-94.7
			c8.3-26.6,23.6-44.5,43-50.3C-546.2,480.8-542.3,473.6-544.4,466.8z"/>
	</g>
</g>
</svg>
