<?xml version="1.0" encoding="utf-8"?>
<!-- Generator: Adobe Illustrator 19.0.0, SVG Export Plug-In . SVG Version: 6.00 Build 0)  -->
<svg version="1.1" id="Capa_1" xmlns="http://www.w3.org/2000/svg" xmlns:xlink="http://www.w3.org/1999/xlink" x="0px" y="0px"
	 viewBox="-785 366.9 348.1 348.1" style="enable-background:new -785 366.9 348.1 348.1;" xml:space="preserve">
<style type="text/css">
	.st0{fill:#FCC434;}
</style>
<g>
	<g>
		<g>
			<path class="st0" d="M-444.7,642l-53.8-53.8c-10.7-10.7-28.4-10.3-39.5,0.7l-27.1,27.1c-1.7-0.9-3.5-1.9-5.3-3
				c-17.1-9.5-40.5-22.5-65.1-47.1c-24.7-24.7-37.7-48.1-47.2-65.3c-1-1.8-2-3.6-2.9-5.2l18.2-18.1l8.9-8.9
				c11.1-11.1,11.4-28.8,0.7-39.5l-53.8-53.8c-10.7-10.7-28.4-10.4-39.5,0.7l-15.2,15.2l0.4,0.4c-5.1,6.5-9.3,14-12.5,22
				c-2.9,7.7-4.7,15-5.6,22.3c-7.1,58.8,19.8,112.6,92.8,185.6c100.9,100.9,182.2,93.2,185.7,92.9c7.6-0.9,15-2.7,22.4-5.6
				c8-3.1,15.5-7.4,21.9-12.4l0.3,0.3l15.3-15C-434.4,670.5-434,652.7-444.7,642z"/>
		</g>
	</g>
</g>
</svg>
