<?xml version="1.0" encoding="utf-8"?>
<!-- Generator: Adobe Illustrator 19.0.0, SVG Export Plug-In . SVG Version: 6.00 Build 0)  -->
<svg version="1.1" id="Capa_1" xmlns="http://www.w3.org/2000/svg" xmlns:xlink="http://www.w3.org/1999/xlink" x="0px" y="0px"
	 viewBox="-930 512 58 58" style="enable-background:new -930 512 58 58;" xml:space="preserve">
<style type="text/css">
	.st0{fill:#FCC434;}
</style>
<g>
	<path class="st0" d="M-901,513.5c-16,0-29,11.6-29,26c0,5.3,1.8,10.2,4.8,14.3c-0.4,4.7-1.5,11.4-4.8,14.7c0,0,9.9-1.4,16.7-5.5
		c0,0,0,0,0,0c2.8-1.8,5.5-3.7,6.1-4.1c0.3-0.4,0.9-0.5,1.3-0.3c0.3,0.2,0.5,0.5,0.5,0.8c0,0.6,0,0.8-5.6,4.4c3.1,1,6.5,1.6,10,1.6
		c16,0,29-11.6,29-26S-885,513.5-901,513.5z"/>
</g>
</svg>
