<?xml version="1.0" encoding="utf-8"?>
<!-- Generator: Adobe Illustrator 19.0.0, SVG Export Plug-In . SVG Version: 6.00 Build 0)  -->
<svg version="1.1" id="Capa_1" xmlns="http://www.w3.org/2000/svg" xmlns:xlink="http://www.w3.org/1999/xlink" x="0px" y="0px"
	 viewBox="-936 518.3 45.7 45.7" style="enable-background:new -936 518.3 45.7 45.7;" xml:space="preserve">
<style type="text/css">
	.st0{fill:#FCC434;}
</style>
<g>
	<g>
		<path class="st0" d="M-913.1,533.6c-4.1,0-7.5,3.4-7.5,7.5s3.4,7.5,7.5,7.5c4.1,0,7.5-3.4,7.5-7.5
			C-905.6,537-909,533.6-913.1,533.6z M-913.1,546.7c-3,0-5.5-2.5-5.5-5.5c0-3,2.5-5.5,5.5-5.5s5.5,2.5,5.5,5.5
			C-907.6,544.2-910.1,546.7-913.1,546.7z"/>
		<path class="st0" d="M-893.8,537.7h-1.6c-1.4-7.2-7.1-12.8-14.3-14.2v-1.6c0-1.9-1.6-3.5-3.5-3.5c-1.9,0-3.5,1.6-3.5,3.5v1.6
			c-7.2,1.4-12.8,7.1-14.2,14.2h-1.6c-1.9,0-3.5,1.6-3.5,3.5c0,1.9,1.6,3.5,3.5,3.5h1.6c1.4,7.2,7.1,12.9,14.2,14.3v1.6
			c0,1.9,1.6,3.5,3.5,3.5c1.9,0,3.5-1.6,3.5-3.5v-1.6c7.2-1.4,12.9-7.1,14.3-14.3h1.6c1.9,0,3.5-1.6,3.5-3.5
			C-890.3,539.2-891.9,537.7-893.8,537.7z M-909.7,554.8V554c0-1.9-1.6-3.5-3.5-3.5c-1.9,0-3.5,1.6-3.5,3.5v0.8
			c-4.9-1.3-8.9-5.2-10.1-10.2h0.8c1.9,0,3.5-1.6,3.5-3.5c0-1.9-1.6-3.5-3.5-3.5h-0.8c1.3-4.9,5.2-8.9,10.1-10.2v0.8
			c0,1.9,1.6,3.5,3.5,3.5c1.9,0,3.5-1.6,3.5-3.5v-0.8c5,1.3,8.9,5.2,10.2,10.2h-0.8c-1.9,0-3.5,1.6-3.5,3.5c0,1.9,1.6,3.5,3.5,3.5
			h0.8C-900.8,549.6-904.7,553.5-909.7,554.8z"/>
	</g>
</g>
</svg>
