<?xml version="1.0" encoding="utf-8"?>
<!-- Generator: Adobe Illustrator 19.0.0, SVG Export Plug-In . SVG Version: 6.00 Build 0)  -->
<svg version="1.1" id="Capa_1" xmlns="http://www.w3.org/2000/svg" xmlns:xlink="http://www.w3.org/1999/xlink" x="0px" y="0px"
	 viewBox="-761 342.7 396.3 396.3" style="enable-background:new -761 342.7 396.3 396.3;" xml:space="preserve">
<style type="text/css">
	.st0{fill:#FCC434;}
</style>
<g>
	<path class="st0" d="M-688.1,701.8c-18.3-32.3-5.9-83,32-120.8c43-43,102.5-53.3,132.9-22.9c0,0,0.1,0.1,0.1,0.1
		c-6.1,17.7-25.4,55.3-83.5,75.7C-659.7,652.5-680.2,682.1-688.1,701.8z M-541.1,607.7c-13.9,13.9-33.6,27.5-61.5,37.3
		c-56.7,19.9-72.5,52.4-77,68.2c0.2,0.2,0.4,0.4,0.6,0.6c30.4,30.4,89.9,20.1,132.9-22.9c38.3-38.3,50.6-89.6,31.5-121.8
		C-519.3,579.8-527.3,593.8-541.1,607.7z M-658.4,467.7c61.3,5.4,94.4-20.9,107.2-34.6c0-0.1,0-0.1-0.1-0.2
		c-15.2-40.2-73.6-55.3-130.5-33.9c-50.1,18.9-82.4,59.9-79,96.9C-745.4,481.4-714.5,462.8-658.4,467.7z M-626.9,544.7
		c50.7-19.1,83-60.8,78.9-98.1c-8.6,7.9-21.7,17.4-40,24.3c-18.4,6.9-42,11.2-71.4,8.6c-59.9-5.2-87.7,17.9-98.2,30.4
		c0.1,0.3,0.2,0.6,0.3,0.8C-742.2,551-683.8,566.2-626.9,544.7z M-449.6,460.9c36.8-49.3,31.8-91.3,26.9-109.4c-0.1,0-0.1,0-0.2,0
		c-42.2-8.2-85.8,33.6-97.4,93.3c-10.2,52.6,7.7,101.6,41,118.1C-483.7,542.1-483.2,506.1-449.6,460.9z M-409.6,355.8
		c2.2,11.5,3.4,27.6-0.3,46.8c-3.7,19.3-12.5,41.6-30.2,65.3c-35.9,48.2-30.9,84-25.7,99.6c0.3,0.1,0.6,0.1,0.8,0.2
		c42.2,8.2,85.8-33.5,97.4-93.3C-357.2,421.3-375.7,371.9-409.6,355.8z"/>
</g>
</svg>
