<?xml version="1.0" encoding="utf-8"?>
<!-- Generator: Adobe Illustrator 19.0.0, SVG Export Plug-In . SVG Version: 6.00 Build 0)  -->
<svg version="1.1" id="Capa_1" xmlns="http://www.w3.org/2000/svg" xmlns:xlink="http://www.w3.org/1999/xlink" x="0px" y="0px"
	 viewBox="-703 285 512 512" style="enable-background:new -703 285 512 512;" xml:space="preserve">
<style type="text/css">
	.st0{fill:#FCC434;}
</style>
<g>
	<g>
		<polygon class="st0" points="-212.2,409.7 -212.2,380.9 -276.9,389.3 -276.9,388.5 -236.2,335.5 -261.9,321.1 -288.1,380.4 
			-288.9,380.4 -315.5,321.6 -341.6,336.4 -301.3,388.1 -301.3,388.9 -364.3,380.9 -364.3,409.7 -300.9,401.6 -300.9,402.5 
			-341.6,454.1 -317.2,469.4 -289.3,409.7 -288.5,409.7 -262.8,469 -235.8,453.7 -276.9,402.9 -276.9,402 		"/>
		<polygon class="st0" points="-282.5,581.5 -261.9,554.7 -274.9,547.4 -288.2,577.5 -288.6,577.5 -302.1,547.6 -315.3,555.2 
			-294.9,581.3 -294.9,581.8 -326.8,577.7 -326.8,592.3 -294.7,588.2 -294.7,588.6 -315.3,614.8 -302.9,622.5 -288.8,592.3 
			-288.4,592.3 -275.4,622.3 -261.7,614.6 -282.5,588.8 -282.5,588.4 -249.7,592.3 -249.7,577.7 -282.5,582 		"/>
		<path class="st0" d="M-437.7,550.9V367c0-39.1-31.3-71-69.7-71c-38.5,0-69.7,31.8-69.7,71v183.9c-34.8,23.7-56,63.5-56,106.8
			c0,70.8,56.4,128.4,125.7,128.4s125.7-57.6,125.7-128.4C-381.7,614.4-402.8,574.6-437.7,550.9L-437.7,550.9z M-507.4,745.2
			c-46.8,0-84.9-39.3-84.9-87.5c0-32.5,17.4-62.2,45.3-77.4c6.6-3.6,10.7-10.5,10.7-17.9V367c0-16.6,13-30.1,28.9-30.1
			c15.9,0,28.9,13.5,28.9,30.1v195.3c0,7.5,4.1,14.4,10.7,17.9c28,15.2,45.3,44.9,45.3,77.4C-422.5,705.9-460.6,745.2-507.4,745.2
			L-507.4,745.2z"/>
		<path class="st0" d="M-611.5,395.3c0-11.3-9.1-20.4-20.4-20.4h-29.5c-11.3,0-20.4,9.1-20.4,20.4c0,11.3,9.1,20.4,20.4,20.4h29.5
			C-620.6,415.7-611.5,406.6-611.5,395.3z"/>
	</g>
</g>
</svg>
