<?xml version="1.0" encoding="utf-8"?>
<!-- Generator: Adobe Illustrator 19.0.0, SVG Export Plug-In . SVG Version: 6.00 Build 0)  -->
<svg version="1.1" id="Capa_1" xmlns="http://www.w3.org/2000/svg" xmlns:xlink="http://www.w3.org/1999/xlink" x="0px" y="0px"
	 viewBox="-839 420.8 240.2 240.2" style="enable-background:new -839 420.8 240.2 240.2;" xml:space="preserve">
<style type="text/css">
	.st0{fill:#FCC434;}
</style>
<g>
	<path class="st0" d="M-799.2,493.3h97.7c3.9,0,7-3.1,7-7c0-3.9-3.1-7-7-7h-97.7c-3.9,0-7,3.1-7,7
		C-806.2,490.2-803,493.3-799.2,493.3z"/>
	<path class="st0" d="M-799.2,517.4h97.7c3.9,0,7-3.1,7-7s-3.1-7-7-7h-97.7c-3.9,0-7,3.1-7,7S-803,517.4-799.2,517.4z"/>
	<path class="st0" d="M-747.5,599.6h-51.7c-3.9,0-7,3.1-7,7c0,3.9,3.1,7,7,7h51.7c3.9,0,7-3.1,7-7
		C-740.5,602.7-743.7,599.6-747.5,599.6z"/>
	<path class="st0" d="M-602.2,441.7l-20.6-12.3c-1.6-1-3.5-1.2-5.3-0.8c-1.8,0.5-3.4,1.6-4.3,3.2l-35.8,59.7v-42.3c0-3.9-3.1-7-7-7
		H-832c-3.9,0-7,3.1-7,7v197.2c0,3.9,3.1,7,7,7h156.8c3.9,0,7-3.1,7-7v-81.1l68.4-114C-597.8,448-598.9,443.7-602.2,441.7
		L-602.2,441.7z M-692.6,578.8l-11.6,9.6l3-14.8l67.2-111.9l8.6,5.1L-692.6,578.8L-692.6,578.8z M-618.3,454.9l-8.6-5.1l2.8-4.7
		l8.6,5.1L-618.3,454.9z M-825,639.4V456.2h142.8v58.7l-12.4,20.6c0-0.3,0.1-0.7,0.1-1c0-3.9-3.1-7-7-7h-97.7c-3.9,0-7,3.1-7,7
		c0,3.9,3.1,7,7,7h97.7c1.6,0,3-0.5,4.2-1.4l-6.9,11.4h-95c-3.9,0-7,3.1-7,7s3.1,7,7,7h86.6l-1.2,2c-0.4,0.7-0.7,1.4-0.9,2.2
		l-1.2,5.9h-83.3c-3.9,0-7,3.1-7,7c0,3.9,3.1,7,7,7h80.4l-3.2,15.6c-0.6,2.9,0.7,5.9,3.3,7.4c1.1,0.7,2.4,1,3.6,1
		c1.6,0,3.2-0.5,4.5-1.6l27.9-23.1c0.2-0.2,0.4-0.3,0.5-0.5v51.1H-825L-825,639.4z"/>
</g>
</svg>
