<?xml version="1.0" encoding="utf-8"?>
<!-- Generator: Adobe Illustrator 19.0.0, SVG Export Plug-In . SVG Version: 6.00 Build 0)  -->
<svg version="1.1" id="Capa_1" xmlns="http://www.w3.org/2000/svg" xmlns:xlink="http://www.w3.org/1999/xlink" x="0px" y="0px"
	 viewBox="-712 293.1 494.9 494.9" style="enable-background:new -712 293.1 494.9 494.9;" xml:space="preserve">
<style type="text/css">
	.st0{fill:#FCC434;}
</style>
<g>
	<path class="st0" d="M-426.2,559.1v36.5c91.2,9,145.4,40.7,145.4,64.4c0,28-75.1,67-197.4,67s-197.3-39-197.3-67
		c0-23.9,55-55.9,147.3-64.6v-36.5c-96.1,9-183.8,43.7-183.8,101.1c0,67.2,120.5,103.5,233.9,103.5c113.4,0,233.9-36.3,233.9-103.5
		C-244.3,603.1-330.8,568.4-426.2,559.1z"/>
	<path class="st0" d="M-225.1,333.4c-2.8-1.8-6-2.6-9.1-2.6c-2.6,0-5.1,0.6-7.5,1.7l-30.3,14.7c-14.1,6.8-29.3,10.2-44.6,10.2
		c-16.1,0-32.2-3.8-46.9-11.4c-14.7-7.6-30.7-11.3-46.7-11.3c-16.7,0-33.4,4.1-48.6,12.3v-11.1c0-10.1-8.2-18.4-18.4-18.4
		s-18.4,8.2-18.4,18.4v328.9c0,10.1,8.2,18.4,18.4,18.4c10.1,0,18.4-8.2,18.4-18.4V496.9c15.2-8.2,31.9-12.3,48.6-12.3
		c16,0,32,3.8,46.7,11.3c14.7,7.6,30.8,11.4,46.9,11.4c15.2,0,30.5-3.4,44.6-10.2l45.2-22c5.9-2.9,9.7-8.9,9.7-15.4V348
		C-217.1,342.1-220.1,336.6-225.1,333.4z"/>
</g>
</svg>
