<?xml version="1.0" encoding="utf-8"?>
<!-- Generator: Adobe Illustrator 19.0.0, SVG Export Plug-In . SVG Version: 6.00 Build 0)  -->
<svg version="1.1" id="Capa_1" xmlns="http://www.w3.org/2000/svg" xmlns:xlink="http://www.w3.org/1999/xlink" x="0px" y="0px"
	 viewBox="-753 335.7 411.3 411.3" style="enable-background:new -753 335.7 411.3 411.3;" xml:space="preserve">
<style type="text/css">
	.st0{fill:#FCC434;}
</style>
<path id="XMLID_443_" class="st0" d="M-522.2,438.3c16.9,4.1,39.3,6.3,63,6.3s46.1-2.2,63-6.3c6-1.5,11.2-3.1,15.5-4.9v15.8
	c-1.5,1.6-7.7,5.4-23.5,8.7c-15.2,3.2-34.7,4.9-55,4.9c-26.5,0-51.6-3-67.1-8c-4.2-1.4-8.7,0.9-10.1,5.1c-1.4,4.2,0.9,8.7,5.1,10.1
	c17.3,5.6,43.5,8.8,72,8.8c23.7,0,46.1-2.2,63-6.3c2.1-0.5,4.1-1,6-1.6l-9.7,58.2c-0.7,4.4,2.2,8.5,6.6,9.2c0.4,0.1,0.9,0.1,1.3,0.1
	c3.8,0,7.2-2.8,7.9-6.7l11.4-68.5c5.3-3.8,8-8.1,8-13.2v-34.2c0-10-10.3-17.4-31.5-22.5c-16.9-4.1-39.3-6.3-63-6.3s-46.1,2.2-63,6.3
	c-21.2,5.1-31.5,12.4-31.5,22.5C-553.7,425.8-543.4,433.2-522.2,438.3z M-514.2,407.9c15.2-3.2,34.7-4.9,55-4.9s39.8,1.7,55,4.9
	c13.6,2.8,20.1,6,22.6,7.9c-2.5,1.8-9,5.1-22.6,7.9c-15.2,3.2-34.7,4.9-55,4.9s-39.8-1.7-55-4.9c-13.6-2.8-20.1-6-22.6-7.9
	C-534.2,413.9-527.7,410.7-514.2,407.9z M-399.1,552.8c-0.6-0.2-1.1-0.4-1.5-0.6c-2.7-1.1-8.4-3.3-13,3.1c-0.3,0.4-0.6,0.9-1.2,1.5
	c-3.7,3.9-15.3,7.9-30.3,7.9c-19,0-29.7-6.1-30.9-8.6c0.3-0.5,1.2-1.6,3.4-2.9c3-1.8,4.5-5.3,3.7-8.7c-0.8-3.4-3.8-5.9-7.3-6.1
	c-9.1-0.6-18.5-0.9-27.8-0.9c-70.1,0-141.1,17-141.1,49.6v110.3c0,32.6,71,49.6,141.1,49.6s141.1-17,141.1-49.6V587.1
	C-362.9,569.2-385.6,557.9-399.1,552.8z M-378.9,697.4c0,5.2-8.7,14.1-33.4,21.8c-24.4,7.6-56.9,11.8-91.7,11.8
	c-34.8,0-67.3-4.2-91.7-11.8c-24.6-7.7-33.4-16.6-33.4-21.8v-86c24.9,16.7,75.2,25.3,125.1,25.3c49.9,0,100.2-8.6,125.1-25.3
	L-378.9,697.4L-378.9,697.4z M-592.8,609.7c3.6-2.4,12.1-5.5,24.9-5.5c15.3,0,24.5,4.5,26.5,6.9c-1.3,1.5-6.3,4.6-16,6.1
	C-570.4,615.3-582.3,612.8-592.8,609.7z M-388.7,598.7c-0.3-4.2-3.7-7.5-8-7.5h-2c-4.4,0-8,3.6-8,8c0,2.7,1.4,5.1,3.4,6.6
	c-2.7,1.1-5.7,2.1-9,3.1c-24.4,7.6-56.9,11.8-91.7,11.8c-8.2,0-16.3-0.2-24.3-0.7c1.9-2.7,3-5.7,3-9c0-15-21.5-22.9-42.7-22.9
	c-17.6,0-35.4,5.4-41,15.8c-14.6-6.3-20.1-12.8-20.1-16.9c0-3.8,4.6-9.5,16.5-15.3c0.4,4,3.8,7.1,8,7.1h2c4.4,0,8-3.6,8-8
	c0-2-0.8-3.9-2-5.3c0.3-0.1,0.6-0.2,0.9-0.3c24.4-7.6,56.9-11.8,91.7-11.8c4.1,0,8.1,0.1,12.2,0.2c-0.2,0.9-0.2,1.7-0.2,2.4
	c0,16.2,23.6,24.7,46.9,24.7c18,0,33.8-4.8,41.5-12.5c14.4,5.6,24.7,13.5,24.7,18.8C-378.9,590.1-381.7,594.2-388.7,598.7z
	 M-519.3,569.4c0,4.4-3.6,8-8,8h-2c-4.4,0-8-3.6-8-8s3.6-8,8-8h2C-522.8,561.4-519.3,565-519.3,569.4z M-474.3,601.4
	c0,4.4-3.6,8-8,8h-2c-4.4,0-8-3.6-8-8s3.6-8,8-8h2C-477.9,593.4-474.3,597-474.3,601.4z M-601.2,521.6v-33.2
	c0-13.4-1.8-23.3-6.1-34.2c-1.6-4.1,0.4-8.8,4.5-10.4c4.1-1.6,8.8,0.4,10.4,4.5c5.1,12.7,7.3,24.7,7.3,40.1v33.2c0,4.4-3.6,8-8,8
	C-597.6,529.6-601.2,526.1-601.2,521.6z M-666.4,705.5c-18,0-32.7-13.8-32.7-30.8V485.6c0-23.2,5.7-34.5,15-53.1
	c0.5-1,1-2.1,1.6-3.2h97.6c0.5,1.1,1.1,2.1,1.6,3.2c9.4,18.6,15,29.8,15,53.1v28.5c0,4.4,3.6,8,8,8s8-3.6,8-8v-28.5
	c0-27-7-41-16.7-60.2c-1.2-2.4-2.4-4.8-3.7-7.4c0-0.1-0.1-0.2-0.1-0.3c-3.7-7.6-7.8-16.2-12.1-27l0-2.4c3.6-4,5.7-9.2,5.7-14.9V358
	c0-12.3-10-22.3-22.3-22.3h-64.3c-12.3,0-22.3,10-22.3,22.3v12.5l-21.1-8.7c-4.1-1.7-8.8,0.3-10.4,4.4c-1.7,4.1,0.3,8.8,4.4,10.4
	l23.4,9.6l-36.2,22.5c-3.8,2.3-4.9,7.3-2.6,11c2.3,3.8,7.3,4.9,11,2.6l32.3-20.1c-2.5,5.7-4.9,10.7-7.2,15.4c0,0.1-0.1,0.2-0.1,0.2
	c-1.3,2.6-2.5,5-3.7,7.4c-9.7,19.3-16.7,33.2-16.7,60.3v189.1c0,25.8,21.8,46.8,48.7,46.8c4.4,0,8-3.6,8-8S-661.9,705.5-666.4,705.5
	z M-672.1,358c0-3.5,2.8-6.3,6.3-6.3h64.3c3.5,0,6.3,2.8,6.3,6.3v15.4c0,2-0.9,3.7-2.3,4.9c-0.2,0.1-0.3,0.2-0.5,0.4
	c-1,0.7-2.2,1.1-3.5,1.1h-64.3c-1.3,0-2.5-0.4-3.5-1.1c-0.2-0.1-0.4-0.3-0.5-0.4c-1.4-1.2-2.3-2.9-2.3-4.9
	C-672.1,373.4-672.1,358-672.1,358z M-667.1,395.7c0.4,0,0.9,0,1.4,0h64.3c0.5,0,0.9,0,1.4,0c2.6,6.5,5.1,12.4,7.6,17.6h-82.1
	C-672.3,408.1-669.7,402.2-667.1,395.7z"/>
</svg>
