<?xml version="1.0" encoding="utf-8"?>
<!-- Generator: Adobe Illustrator 19.0.0, SVG Export Plug-In . SVG Version: 6.00 Build 0)  -->
<svg version="1.1" id="Layer_1" xmlns="http://www.w3.org/2000/svg" xmlns:xlink="http://www.w3.org/1999/xlink" x="0px" y="0px"
	 viewBox="-798 380.4 321.6 321.6" style="enable-background:new -798 380.4 321.6 321.6;" xml:space="preserve">
<style type="text/css">
	.st0{fill:#FCC434;}
</style>
<g>
	<g>
		<path class="st0" d="M-637.2,481.1c-22.2,0-40.3,15-40.3,33.5s18.1,33.5,40.3,33.5v-13.9c-14.6,0-26.5-8.9-26.5-19.6
			c0-10.8,11.8-19.6,26.5-19.6c14.6,0,26.5,8.9,26.5,19.6h13.9C-596.8,496.1-615,481.1-637.2,481.1z"/>
	</g>
</g>
<g>
	<g>
		<path class="st0" d="M-637.2,534.2v13.9c14.6,0,26.5,8.9,26.5,19.6c0,10.8-11.8,19.6-26.5,19.6c-14.6,0-26.5-8.9-26.5-19.6h-13.9
			c0,18.5,18.1,33.5,40.3,33.5c22.2,0,40.3-15,40.3-33.5C-596.8,549.2-615,534.2-637.2,534.2z"/>
	</g>
</g>
<g>
	<g>
		<rect x="-644.1" y="467.5" class="st0" width="13.9" height="20.5"/>
	</g>
</g>
<g>
	<g>
		<rect x="-644.1" y="594.2" class="st0" width="13.9" height="20.5"/>
	</g>
</g>
<g>
	<g>
		<path class="st0" d="M-484.1,551.2c-5.2-5.8-5.2-14.3,0-19.9c6.4-6.9,9-16.5,6.9-25.7c-2.1-9.3-8.7-16.9-17.6-20.4
			c-7.4-3-11.2-10.7-9-18c2.6-8.6,1-17.9-4.5-25.2c-5.5-7.5-14.1-11.7-23.4-11.7c-0.7,0-1.4,0.1-2,0.1c-8,0.4-14.9-5-16.2-12.6
			c-2.3-14-14.5-24.2-28.9-24.2c-4.9,0-9.9,1.3-14.3,3.7c-2.3,1.4-5,2-7.7,2c-5,0-9.7-2.5-12.6-6.5c-5.5-7.8-14.3-12.3-24-12.3
			c-9.7,0-18.3,4.4-24,12.2c-2.8,4.1-7.6,6.4-12.6,6.4c-2.7,0-5.2-0.6-7.6-1.9c-4.4-2.5-9.4-3.7-14.3-3.7
			c-14.5,0-26.7,10.1-28.9,24.2c-1.2,7.3-7.6,12.6-15.1,12.6c-0.3,0-0.7,0-1.1,0c-0.6-0.1-1.3-0.1-1.9-0.1
			c-9.3,0-18.1,4.5-23.6,11.8c-5.4,7.4-7,16.5-4.4,25.3c2.2,7.3-1.6,15-9,17.9c-9,3.5-15.5,11.1-17.6,20.4
			c-2.1,9.1,0.5,18.7,6.9,25.6c5.2,5.8,5.2,14.3,0,19.9c-6.4,6.9-9,16.5-6.9,25.7c2.1,9.3,8.7,16.9,17.6,20.4c7.4,3,11.2,10.7,9,18
			c-2.6,8.7-1,17.9,4.5,25.3c5.7,7.5,14.2,11.7,23.6,11.7c0.6,0,1.2-0.1,1.8-0.1c8-0.4,14.9,5,16.2,12.6
			c2.3,14.1,14.5,24.2,28.9,24.2c4.9,0,9.9-1.3,14.3-3.7c2.3-1.4,5-2,7.7-2c5,0,9.7,2.3,12.6,6.4c5.5,7.7,14.5,12.3,24,12.3
			c9.6,0,18.6-4.6,23.9-12.3c2.8-4.1,7.5-6.4,12.6-6.4c2.7,0,5.2,0.6,7.6,1.9c4.4,2.5,9.4,3.7,14.3,3.7c14.5,0,26.7-10.1,28.9-24.2
			c1.2-7.3,7.6-12.6,15.1-12.6c0.3,0,0.7,0,1.1,0c0.6,0.1,1.3,0.1,1.9,0.1c9.4,0,18-4.3,23.6-11.7c5.4-7.4,7.1-16.5,4.5-25.3
			c-2.2-7.3,1.6-15,9-17.9c9-3.5,15.5-11.1,17.6-20.4C-475,567.8-477.7,558.2-484.1,551.2z M-494.6,560.4c3.4,3.5,4.7,8.3,3.6,13.1
			c-1.1,4.8-4.4,8.6-9.2,10.6c-14.1,5.7-21.4,20.7-17.1,34.9c1.3,4.5,0.4,9.3-2.3,13c-2.9,3.9-7.4,6.2-12.4,6.2c-0.3,0-0.6,0-1,0
			c-15.1-1.1-28.4,9.5-30.7,24.1c-1.3,8.2-8.6,12.6-15.1,12.6c-2.7,0-5.2-0.6-7.6-1.9c-4.4-2.5-9.3-3.7-14.3-3.7
			c-9.5,0-18.5,4.6-23.9,12.3c-2.9,4.1-7.5,6.4-12.6,6.4c-5.2,0-9.8-2.3-12.7-6.4c-5.4-7.7-14.4-12.3-23.9-12.3
			c-5,0-9.9,1.3-14.4,3.5c-2.3,1.4-4.9,2-7.6,2c-6.5,0-13.8-4.3-15.1-12.6c-2.3-14.1-14.5-24.2-29-24.2c-0.5,0-1.1,0-1.7,0
			c-5.3,0.3-10.3-2-13.4-6.2c-2.9-3.7-3.6-8.4-2.3-12.9c4.4-14.3-2.9-29.3-17.1-35c-4.7-1.9-8.1-5.8-9.2-10.6
			c-1.1-4.8,0.2-9.6,3.6-13.2c10.2-11,10.2-27.6,0-38.7c-3.4-3.5-4.7-8.3-3.6-13.1c1.1-4.8,4.4-8.6,9.2-10.6
			c14.1-5.7,21.4-20.6,17.1-34.9c-1.4-4.5-0.5-9.2,2.2-12.9c2.9-3.9,7.4-6.2,12.4-6.2c0.3,0,0.6,0,1,0c15.1,1.1,28.4-9.5,30.7-24.1
			c1.3-8.2,8.6-12.6,15.1-12.6c2.7,0,5.2,0.6,7.6,1.9c4.4,2.5,9.3,3.7,14.3,3.7c9.5,0,18.5-4.6,23.9-12.2c3-4.1,7.6-6.4,12.7-6.4
			s9.7,2.5,12.7,6.5c5.4,7.7,14.4,12.3,23.9,12.3c4.9,0,9.9-1.3,14.3-3.7c2.3-1.4,4.9-2,7.6-2c6.5,0,13.8,4.3,15.1,12.6
			c2.3,14.1,14.5,24.2,29,24.2c0.6,0,1.2,0,1.8,0c5.4-0.4,10.3,1.9,13.4,6.1c2.9,3.7,3.6,8.4,2.3,12.9c-4.4,14.3,2.9,29.3,17.1,35
			c4.7,1.9,8.1,5.8,9.2,10.6c1.1,4.8-0.2,9.6-3.6,13.2C-504.8,532.7-504.8,549.3-494.6,560.4z"/>
	</g>
</g>
<g>
	<g>
		<path class="st0" d="M-637.2,427.2c-62.8,0-113.9,51.1-113.9,113.9S-700,655-637.2,655s113.9-51.1,113.9-113.9
			S-574.3,427.2-637.2,427.2z M-637.2,641.2c-55.1,0-100.1-44.9-100.1-100.1c0-55.1,44.9-100.1,100.1-100.1
			c55.1,0,100.1,44.9,100.1,100.1S-582,641.2-637.2,641.2z"/>
	</g>
</g>
</svg>
