<?xml version="1.0" encoding="utf-8"?>
<!-- Generator: Adobe Illustrator 19.0.0, SVG Export Plug-In . SVG Version: 6.00 Build 0)  -->
<svg version="1.1" id="Layer_1" xmlns="http://www.w3.org/2000/svg" xmlns:xlink="http://www.w3.org/1999/xlink" x="0px" y="0px"
	 viewBox="-703 285 512 512" style="enable-background:new -703 285 512 512;" xml:space="preserve">
<style type="text/css">
	.st0{fill:#FCC434;}
</style>
<g>
	<g>
		<path class="st0" d="M-192.2,745l-45.4-76.4c-1.5-2.6-4.3-4.2-7.4-4.2h-404.1c-3,0-5.8,1.6-7.4,4.2l-45.4,76.4
			c-1.6,2.6-1.6,5.9-0.1,8.6c1.5,2.7,4.4,4.3,7.4,4.3h74.5c4.7,0,8.6-3.8,8.6-8.6c0-4.7-3.8-8.6-8.6-8.6h-59.4l35.2-59.3h394.4
			l35.2,59.3h-371c-4.7,0-8.6,3.8-8.6,8.6c0,4.7,3.8,8.6,8.6,8.6h386.1c3.1,0,5.9-1.7,7.4-4.3C-190.6,750.9-190.6,747.7-192.2,745z"
			/>
	</g>
</g>
<g>
	<g>
		<path class="st0" d="M-258.7,633l-42.3-71.3c-1.5-2.6-4.3-4.2-7.4-4.2h-277.3c-3,0-5.8,1.6-7.4,4.2l-42.3,71.3
			c-1.6,2.6-1.6,5.9-0.1,8.6c1.5,2.7,4.4,4.3,7.4,4.3h256.8c4.7,0,8.6-3.8,8.6-8.6c0-4.7-3.8-8.6-8.6-8.6h-241.8l32.1-54.1h267.5
			l32.1,54.1h-55.8c-4.7,0-8.6,3.8-8.6,8.6c0,4.7,3.8,8.6,8.6,8.6h70.8c3.1,0,5.9-1.7,7.4-4.3C-257.1,639-257.1,635.7-258.7,633z"/>
	</g>
</g>
<g>
	<g>
		<path class="st0" d="M-385.5,419.4l-54.1-91.1c-1.5-2.6-4.3-4.2-7.4-4.2c-3,0-5.8,1.6-7.4,4.2l-54.1,91.1
			c-1.6,2.7-1.6,5.9-0.1,8.6c1.5,2.7,4.4,4.3,7.4,4.3h108.2c3.1,0,5.9-1.7,7.4-4.3C-383.9,425.3-384,422-385.5,419.4z M-486,415.2
			l39-65.8l39,65.8L-486,415.2L-486,415.2z"/>
	</g>
</g>
<g>
	<g>
		<path class="st0" d="M-322.1,526.2l-42.3-71.3c-1.5-2.6-4.3-4.2-7.4-4.2h-150.4c-3,0-5.8,1.6-7.4,4.2l-42.3,71.3
			c-1.6,2.6-1.6,5.9-0.1,8.6c1.5,2.7,4.4,4.3,7.4,4.3h48.1c4.7,0,8.6-3.8,8.6-8.6c0-4.7-3.8-8.6-8.6-8.6h-33.1l32.1-54.1h140.7
			l32.1,54.1h-138.4c-4.7,0-8.6,3.8-8.6,8.6c0,4.7,3.8,8.6,8.6,8.6h153.5c3.1,0,5.9-1.7,7.4-4.3
			C-320.5,532.1-320.5,528.9-322.1,526.2z"/>
	</g>
</g>
</svg>
