<?xml version="1.0" encoding="utf-8"?>
<!-- Generator: Adobe Illustrator 19.0.0, SVG Export Plug-In . SVG Version: 6.00 Build 0)  -->
<svg version="1.1" id="Capa_1" xmlns="http://www.w3.org/2000/svg" xmlns:xlink="http://www.w3.org/1999/xlink" x="0px" y="0px"
	 viewBox="-724 306 470 470" style="enable-background:new -724 306 470 470;" xml:space="preserve">
<style type="text/css">
	.st0{fill:#FCC434;}
</style>
<g>
	<path class="st0" d="M-534,438.5c-20.7,0-37.5,16.8-37.5,37.5s16.8,37.5,37.5,37.5s37.5-16.8,37.5-37.5S-513.3,438.5-534,438.5z
		 M-534,498.5c-12.4,0-22.5-10.1-22.5-22.5s10.1-22.5,22.5-22.5s22.5,10.1,22.5,22.5S-521.6,498.5-534,498.5z"/>
	<path class="st0" d="M-444,438.5c-20.7,0-37.5,16.8-37.5,37.5s16.8,37.5,37.5,37.5s37.5-16.8,37.5-37.5S-423.3,438.5-444,438.5z
		 M-444,498.5c-12.4,0-22.5-10.1-22.5-22.5s10.1-22.5,22.5-22.5s22.5,10.1,22.5,22.5S-431.6,498.5-444,498.5z"/>
	<path class="st0" d="M-656.5,438.5c-20.7,0-37.5,16.8-37.5,37.5s16.8,37.5,37.5,37.5S-619,496.7-619,476S-635.8,438.5-656.5,438.5z
		 M-656.5,498.5c-12.4,0-22.5-10.1-22.5-22.5s10.1-22.5,22.5-22.5S-634,463.6-634,476S-644.1,498.5-656.5,498.5z"/>
	<circle class="st0" cx="-595.2" cy="476" r="7.5"/>
	<path class="st0" d="M-281.5,408.5h-415c-15.2,0-27.5,12.3-27.5,27.5v80c0,15.2,12.3,27.5,27.5,27.5h170v35h-33.8
		c-1.8,0-3.5,0.6-4.8,1.7l-60,50c0,0-0.1,0.1-0.1,0.1c-0.2,0.1-0.3,0.3-0.4,0.4c-0.1,0.1-0.1,0.1-0.2,0.2c-0.1,0.1-0.2,0.2-0.3,0.4
		c-0.1,0.1-0.1,0.2-0.2,0.2c-0.1,0.1-0.2,0.3-0.3,0.4c-0.1,0.1-0.1,0.2-0.2,0.2c-0.1,0.1-0.2,0.3-0.2,0.4c0,0.1-0.1,0.2-0.1,0.2
		c-0.1,0.2-0.1,0.3-0.2,0.5c0,0.1-0.1,0.1-0.1,0.2c-0.1,0.2-0.1,0.4-0.2,0.6c0,0.1,0,0.1-0.1,0.2c0,0.2-0.1,0.4-0.1,0.6
		c0,0.1,0,0.1,0,0.2c0,0.3,0,0.5,0,0.8v30c0,4.1,3.4,7.5,7.5,7.5h262.6c4.1,0,7.5-3.4,7.5-7.5v-30c0-0.3,0-0.5,0-0.8
		c0-0.1,0-0.1,0-0.2c0-0.2-0.1-0.4-0.1-0.6c0-0.1,0-0.1-0.1-0.2c0-0.2-0.1-0.4-0.2-0.6c0-0.1-0.1-0.1-0.1-0.2
		c-0.1-0.2-0.1-0.3-0.2-0.5c0-0.1-0.1-0.2-0.1-0.2c-0.1-0.2-0.2-0.3-0.2-0.4c0-0.1-0.1-0.2-0.1-0.2c-0.1-0.1-0.2-0.3-0.3-0.4
		c-0.1-0.1-0.1-0.2-0.2-0.2c-0.1-0.1-0.2-0.2-0.3-0.4c-0.1-0.1-0.1-0.1-0.2-0.2c-0.1-0.1-0.3-0.3-0.4-0.4c0,0-0.1-0.1-0.1-0.1
		l-60-50c-1.3-1.1-3-1.7-4.8-1.7h-33.8V566c0-4.1-3.4-7.5-7.5-7.5s-7.5,3.4-7.5,7.5v12.5h-45v-35h230c15.2,0,27.5-12.3,27.5-27.5
		v-80C-254,420.8-266.3,408.5-281.5,408.5z M-378.4,628.5h-165c-4.1,0-7.5,3.4-7.5,7.5s3.4,7.5,7.5,7.5h178.2v15h-247.6v-15h39.4
		c4.1,0,7.5-3.4,7.5-7.5s-3.4-7.5-7.5-7.5h-26.1l42-35h137.1L-378.4,628.5z M-269,516c0,6.9-5.6,12.5-12.5,12.5h-415
		c-6.9,0-12.5-5.6-12.5-12.5v-80c0-6.9,5.6-12.5,12.5-12.5h415c6.9,0,12.5,5.6,12.5,12.5V516z"/>
</g>
</svg>
