<?xml version="1.0" encoding="utf-8"?>
<!-- Generator: Adobe Illustrator 19.0.0, SVG Export Plug-In . SVG Version: 6.00 Build 0)  -->
<svg version="1.1" id="Capa_1" xmlns="http://www.w3.org/2000/svg" xmlns:xlink="http://www.w3.org/1999/xlink" x="0px" y="0px"
	 viewBox="-784 366.3 349.7 349.7" style="enable-background:new -784 366.3 349.7 349.7;" xml:space="preserve">
<style type="text/css">
	.st0{fill:#FCC434;}
</style>
<g>
	<path class="st0" d="M-609.2,563.5c24.1,0,80.8-29,80.8-98.6c0-54.5-7.3-98.6-80.8-98.6c-73.5,0-80.8,44.1-80.8,98.6
		C-690,534.5-633.3,563.5-609.2,563.5z M-677.9,448.5c5.7-11,18-23.7,44.4-23.1c0,0,15.7,38.2,93,21c0.3,6.1,0.4,12.3,0.4,18.5
		c0,34-15,55.1-27.6,66.8c-15.9,14.7-33.5,20.1-41.5,20.1s-25.6-5.3-41.5-20.1c-12.6-11.7-27.6-32.8-27.6-66.8
		C-678.2,459.4-678.2,453.9-677.9,448.5z"/>
	<path class="st0" d="M-459.1,664.7c-4.1-25.7-12.6-58.7-29.7-70.5c-11.6-8-52.2-29.7-69.6-39l-0.3-0.2c-2-1.1-4.4-0.8-6.2,0.5
		c-9.1,7.1-19,11.9-29.6,14.3c-1.9,0.4-3.4,1.7-4.1,3.5l-10.7,28.3l-10.7-28.3c-0.7-1.8-2.2-3.1-4.1-3.5
		c-10.5-2.3-20.5-7.2-29.6-14.3c-1.8-1.4-4.2-1.6-6.2-0.5c-17.1,9.2-58.2,31.3-69.8,39.1c-19.6,13.2-28.2,61.1-29.7,70.5
		c-0.2,0.9-0.1,1.9,0.3,2.8c0.7,2,18.7,48.5,149.8,48.5s149.1-46.6,149.8-48.5C-459,666.6-458.9,665.6-459.1,664.7z M-519.5,649
		l-25.7,8l-25.7-8v-13.8h51.3V649z"/>
</g>
</svg>
