<?xml version="1.0" encoding="utf-8"?>
<!-- Generator: Adobe Illustrator 19.0.0, SVG Export Plug-In . SVG Version: 6.00 Build 0)  -->
<svg version="1.1" id="Layer_1" xmlns="http://www.w3.org/2000/svg" xmlns:xlink="http://www.w3.org/1999/xlink" x="0px" y="0px"
	 viewBox="-703 285 512 512" style="enable-background:new -703 285 512 512;" xml:space="preserve">
<style type="text/css">
	.st0{fill:#FCC434;}
</style>
<g>
	<g>
		<path class="st0" d="M-568,439.7h-123.1c-6.6,0-11.9,5.3-11.9,11.9v59.7c0,6.6,5.3,11.9,11.9,11.9H-568c6.6,0,11.9-5.3,11.9-11.9
			v-59.7C-556.1,445-561.5,439.7-568,439.7z"/>
	</g>
</g>
<g>
	<g>
		<path class="st0" d="M-385.4,439.7h-123.1c-6.6,0-11.9,5.3-11.9,11.9v178.8c0,6.6,5.3,11.9,11.9,11.9h123.1
			c6.6,0,11.9-5.3,11.9-11.9V451.6C-373.5,445-378.8,439.7-385.4,439.7z"/>
	</g>
</g>
<g>
	<g>
		<path class="st0" d="M-202.9,558.8H-326c-6.6,0-11.9,5.3-11.9,11.9v59.7c0,6.6,5.3,11.9,11.9,11.9h123.1c6.6,0,11.9-5.3,11.9-11.9
			v-59.7C-191,564.1-196.3,558.8-202.9,558.8z"/>
	</g>
</g>
<g>
	<g>
		<path class="st0" d="M-202.9,439.7H-326c-6.6,0-11.9,5.3-11.9,11.9v59.7c0,6.6,5.3,11.9,11.9,11.9h123.1c6.6,0,11.9-5.3,11.9-11.9
			v-59.7C-191,445-196.3,439.7-202.9,439.7z"/>
	</g>
</g>
<g>
	<g>
		<path class="st0" d="M-385.4,320.5h-123.1c-6.6,0-11.9,5.3-11.9,11.9v59.7c0,6.6,5.3,11.9,11.9,11.9h123.1
			c6.6,0,11.9-5.3,11.9-11.9v-59.7C-373.5,325.9-378.8,320.5-385.4,320.5z"/>
	</g>
</g>
<g>
	<g>
		<path class="st0" d="M-568,320.5h-123.1c-6.6,0-11.9,5.3-11.9,11.9v59.7c0,6.6,5.3,11.9,11.9,11.9H-568c6.6,0,11.9-5.3,11.9-11.9
			v-59.7C-556.1,325.9-561.5,320.5-568,320.5z"/>
	</g>
</g>
<g>
	<g>
		<path class="st0" d="M-567.9,558.8H-691c-6.6,0-11.9,5.3-11.9,11.9v59.7c0,6.6,5.3,11.9,11.9,11.9h123.1c6.6,0,11.9-5.3,11.9-11.9
			v-59.7C-556,564.1-561.3,558.8-567.9,558.8z"/>
	</g>
</g>
<g>
	<g>
		<path class="st0" d="M-385.4,678h-123.1c-6.6,0-11.9,5.3-11.9,11.9v59.7c0,6.6,5.3,11.9,11.9,11.9h123.1c6.6,0,11.9-5.3,11.9-11.9
			v-59.7C-373.5,683.3-378.8,678-385.4,678z"/>
	</g>
</g>
<g>
	<g>
		<path class="st0" d="M-202.9,678H-326c-6.6,0-11.9,5.3-11.9,11.9v59.7c0,6.6,5.3,11.9,11.9,11.9h123.1c6.6,0,11.9-5.3,11.9-11.9
			v-59.7C-191,683.3-196.3,678-202.9,678z"/>
	</g>
</g>
</svg>
