<?xml version="1.0" encoding="utf-8"?>
<!-- Generator: Adobe Illustrator 19.0.0, SVG Export Plug-In . SVG Version: 6.00 Build 0)  -->
<svg version="1.1" id="Layer_1" xmlns="http://www.w3.org/2000/svg" xmlns:xlink="http://www.w3.org/1999/xlink" x="0px" y="0px"
	 viewBox="0 0 629.2 536.1" style="enable-background:new 0 0 629.2 536.1;" xml:space="preserve">
<style type="text/css">
	.st0{fill:url(#SVGID_1_);}
	.st1{fill-rule:evenodd;clip-rule:evenodd;}
	.st2{fill-rule:evenodd;clip-rule:evenodd;fill:#FFFFFF;}
	.st3{fill-rule:evenodd;clip-rule:evenodd;fill:#00ADDC;}
	.st4{fill:#F7941E;}
</style>
<g>
	
		<radialGradient id="SVGID_1_" cx="320.9895" cy="407.6763" r="450.3921" gradientTransform="matrix(1 0 0 1 0 -0.1419)" gradientUnits="userSpaceOnUse">
		<stop  offset="0.5" style="stop-color:#FFF200"/>
		<stop  offset="0.9539" style="stop-color:#F7941E"/>
		<stop  offset="1" style="stop-color:#F7941E"/>
	</radialGradient>
	<path class="st0" d="M173.5,453c0,0,5.8,19.5,26.5,10.8l43.5-8.1c0,0,14.9-4.3,20.1-17.9c0,0,23.3,31.4,61-8.7
		c0,0,39.8,27.1,76.9-19.5c0,0,33.4,38.5,81.7-14.1c0,0,21.5,24.3,48.3,7.3c23.1-39.6,36.3-85.6,36.3-134.6
		C567.9,120,447.7,0,299.5,0C151.3,0,31.1,120,31.1,268.1c0,93.1,47.5,175,119.6,223.1C157.8,490.3,176.5,484.7,173.5,453z"/>
	<g>
		<path class="st1" d="M370.5,409.1c16.9-3,25.4-14.2,34-28.2l7.3-1.3c-8.7,21.7-23.3,44.8-51.7,49.8c-20.1,3.5-35-3.9-39.3-28
			c-4.3-24.5,0.5-78.3,44.2-86c19-3.4,25.2,5.7,27.1,16.3c4.3,24.5-15.8,47.6-41.1,53.6c0.3,3,0.6,6,1.1,8.6
			C354.5,408.4,360.2,410.9,370.5,409.1L370.5,409.1z M368.6,326.4L368.6,326.4c-10.9,1.9-17.3,26.6-17.9,48.4
			c16.2-4,27.9-22.9,24.7-40.6C374.6,328.8,372.7,325.6,368.6,326.4z"/>
		<path class="st1" d="M351.1,436.1c-19.5,0-32.3-12-36.2-33.7c-4.7-26.6,1.1-84.4,49-92.8c3-0.5,5.9-0.8,8.5-0.8
			c9.8,0,22.2,3.8,25.4,21.9c4.4,24.7-13.5,50.2-40.5,59c0.1,1.1,0.3,2.2,0.5,3.2c1.9,10.9,4.9,10.9,7.6,10.9c1.1,0,2.5-0.1,4.1-0.4
			c13.6-2.4,21-10.8,29.9-25.4l1.4-2.3l20.3-3.6l-3.9,9.8c-12.6,31.5-31,48.9-56.2,53.4C357.6,435.8,354.2,436.1,351.1,436.1
			L351.1,436.1z M364.7,321.4L364.7,321.4c-37.9,7.8-42.1,56.3-38.1,78.9c2.9,16.4,10.7,24,24.5,24c2.4,0,5.1-0.3,7.9-0.7
			c10.2-1.8,19.1-6.3,26.8-13.7c-4.1,2.3-8.8,4-14.3,5c-2.3,0.4-4.3,0.6-6.1,0.6c-14,0-17.7-11.8-19.2-20.6
			c-0.5-2.7-0.8-5.7-1.1-8.6l-0.6-5.5l0.2-0.1l0.2-6.1C345.3,357.1,350.1,327.4,364.7,321.4L364.7,321.4z M371.8,320.6L371.8,320.6
			c3.8,0.7,7.9,3.7,9.5,12.6c2.3,13.2-2.5,27.1-11.3,36.6c11.9-9.4,18.6-23.4,16.2-37C384.6,323.9,380.5,320.4,371.8,320.6
			L371.8,320.6z M369,332.4L369,332.4c-4.2,2-9.8,14.5-11.7,33c8.9-6.3,14.5-18.8,12.4-30.2C369.5,333.8,369.2,332.9,369,332.4z"/>
	</g>
	<g>
		<path class="st1" d="M457.6,319.7c-0.9-5.3-3.5-8.4-7.5-7.7c-13.4,2.4-20.4,43.8-16.2,67.5c2.6,14.5,8.3,17,18.5,15.2
			c16.9-3,25.4-14.1,34-28.2l7.2-1.3c-8.7,21.7-23.3,44.8-51.7,49.7c-20,3.5-35-3.9-39.3-28c-4.4-24.7,0.7-78.3,44-86
			c19-3.4,25.4,5.6,27.1,15.4c1.8,10.4-2.4,16.5-8.6,17.5c-2.3,0.4-5.1,0-7.9-1.2C458.2,327.7,458.3,323.3,457.6,319.7z"/>
		<path class="st1" d="M433,421.7c-19.5,0-32.3-12-36.2-33.7c-2.3-12.8-2.3-33.3,4.4-52.4c8-22.7,23.3-36.7,44.4-40.4
			c19-3.3,31.1,4.1,34,20.2c1.1,6.2,0.4,11.8-1.9,16.1c-2.4,4.5-6.5,7.4-11.5,8.3c-3.5,0.6-7.4,0.1-11.3-1.7l-4.2-1.9l0.8-4.6
			c0.7-4.2,0.9-8,0.3-11c-0.3-1.5-0.7-2.4-0.9-2.8c-2.4,0.9-6.8,7-9.8,21.1c-2.8,13.2-3.4,28.6-1.5,39.5c1.9,10.8,4.9,10.8,7.6,10.8
			c1.1,0,2.5-0.1,4.1-0.4c13.6-2.4,21.1-10.8,29.9-25.4l1.4-2.3l20.3-3.6l-3.9,9.8c-12.6,31.5-31,48.9-56.1,53.4
			C439.5,421.4,436.1,421.7,433,421.7L433,421.7z M446.2,307.1L446.2,307.1c-16.1,3.3-27.5,14.2-33.9,32.5
			c-5.9,16.9-5.8,35.6-3.9,46.4c2.9,16.4,10.7,24,24.6,24c2.4,0,5.1-0.2,7.9-0.7c10.2-1.8,19.1-6.3,26.8-13.7c-4.1,2.3-8.8,4-14.3,5
			c-2.3,0.4-4.3,0.6-6.1,0.6c-14,0-17.7-11.7-19.2-20.6c-2.2-12.4-1.6-29.2,1.6-44C432.1,324.9,436.9,311,446.2,307.1L446.2,307.1z
			 M453.1,306.2L453.1,306.2c3.2,0.6,8.7,3,10.4,12.5c0.5,2.9,0.6,6.1,0.4,9.5c0.1,0,0.3,0,0.4,0c1.4-0.3,2.4-1,3.1-2.3
			c1-1.9,1.3-4.9,0.6-8.5C466.5,309.3,462,305.9,453.1,306.2z"/>
	</g>
	<g>
		<g>
			<g>
				<path class="st2" d="M238,424.9c-0.7-3.8,2.4-9.9,10.3-11.3c6.4-1.1,10.2,2.8,11.2,8.6c1.7,9.8-5.6,24.5-22,27.4l-44.2,7.8
					c-6.8,1.2-10.4-3.1-8.1-9.6l29.2-81.2c2.3-6.4,1.5-11.3-1.8-10.7c-3.3,0.6-11.2,2.2-17.6,3.5c0,0,0,0,0.5,3
					c0.2,1.1,2.3-0.6,3.2,4.3c1.4,7.9-4,12.4-9.5,13.3c-4.9,0.9-10.4-1.5-11.5-7.6c-1.5-8.7,5.8-23.2,21-25.9l42.5-7.5
					c6.8-1.2,10.4,3.1,8,9.5l-27.8,75.9c-2.4,6.4,0.5,11.4,6.4,11.1c0,0,0,0,5.8-1c5.1-0.9,9.2-2.5,9.3-6
					C240.1,429,238.4,427.3,238,424.9z"/>
				<path class="st2" d="M191.2,466.5c-5.4,0-10-2.3-12.8-6.2c-3-4.2-3.5-9.7-1.4-15.4l21.1-58.7c-2.2,1.3-4.6,2.2-7.3,2.6
					c-1.2,0.2-2.3,0.3-3.5,0.3c-9.3,0-16.6-6.1-18.2-15.1c-2.5-14.3,9-32.7,28.1-36.1l42.5-7.5c6.9-1.2,13.1,1.1,16.5,5.9
					c3,4.2,3.5,9.7,1.4,15.4l-21.2,57.9c2.9-2.3,6.5-3.9,10.5-4.6c10.7-1.9,19.5,4.7,21.4,15.8c1.3,7.4-0.8,15.9-5.6,22.9
					c-5.4,7.8-13.8,13-23.5,14.7l-44.2,7.8C193.6,466.4,192.4,466.5,191.2,466.5L191.2,466.5z M222,351.5L222,351.5
					c0.1,0.1,0.2,0.2,0.3,0.4c3,4.2,3.1,10.5,0.5,17.8l-28.2,78.6l26.9-4.7c-2.7-1.1-5.1-2.9-6.8-5.3c-3.2-4.5-3.7-10.6-1.5-16.7
					l26.8-73.2L222,351.5L222,351.5z M186.6,371.4L186.6,371.4c0,0,0.6,0.1,1.1,0c0.9-0.2,1.7-0.6,2.1-1c0.1-0.1,0.2-0.3,0.3-0.8
					c-1.5-1.2-2.3-2.6-2.7-3.8c-0.8,2-1.1,3.9-0.9,5.1C186.5,371.2,186.6,371.4,186.6,371.4L186.6,371.4L186.6,371.4z"/>
			</g>
			<g>
				<path class="st2" d="M370.5,409.1c16.9-3,25.4-14.2,34-28.2l7.3-1.3c-8.7,21.7-23.3,44.8-51.7,49.8c-20.1,3.5-35-3.9-39.3-28
					c-4.3-24.5,0.5-78.3,44.2-86c19-3.4,25.2,5.7,27.1,16.3c4.3,24.5-15.8,47.6-41.1,53.6c0.3,3,0.6,6,1.1,8.6
					C354.5,408.4,360.2,410.9,370.5,409.1L370.5,409.1z M368.6,326.4L368.6,326.4c-10.9,1.9-17.3,26.6-17.9,48.4
					c16.2-4,27.9-22.9,24.7-40.6C374.6,328.8,372.7,325.6,368.6,326.4z"/>
				<path class="st2" d="M351.1,439.1c-21.1,0-35-12.8-39.1-36.2c-4.9-27.6,1.3-87.4,51.4-96.2c20.8-3.7,34.1,5,37.3,23.5
					c4.5,25.4-13.1,51.6-40.2,61.5c0,0.2,0.1,0.5,0.1,0.7c1.5,8.4,3.1,8.4,4.7,8.4c0.9,0,2.1-0.1,3.6-0.4
					c12.6-2.2,19.3-9.8,27.9-24.1l2.1-3.4l26.8-4.7l-5.9,14.7c-13,32.5-32.1,50.6-58.4,55.2C357.9,438.7,354.4,439.1,351.1,439.1
					L351.1,439.1z M352.3,329.3L352.3,329.3c-26.1,15.8-25,58.3-22.9,70.6c3.4,19.1,13.3,21.5,21.7,21.5c2.3,0,4.8-0.2,7.4-0.7
					c3-0.5,5.9-1.3,8.6-2.3c-0.6,0-1.1,0-1.7,0c-18.1,0-21.1-17.3-22.1-23c-0.5-2.8-0.8-5.9-1.1-8.9l-0.1-0.6l-0.4,0.1l0.1-3.3
					l-0.4-4.3l0.6-0.1l0.1-3.8C342,370.7,343,344.9,352.3,329.3L352.3,329.3z M367.2,338.8L367.2,338.8c-2,3.7-4.2,10.1-5.7,18.4
					C365.2,352.1,367.5,345.4,367.2,338.8z"/>
			</g>
			<g>
				<path class="st2" d="M457.6,319.7c-0.9-5.3-3.5-8.4-7.5-7.7c-13.4,2.4-20.4,43.8-16.2,67.5c2.6,14.5,8.3,17,18.5,15.2
					c16.9-3,25.4-14.1,34-28.2l7.2-1.3c-8.7,21.7-23.3,44.8-51.7,49.7c-20,3.5-35-3.9-39.3-28c-4.4-24.7,0.7-78.3,44-86
					c19-3.4,25.4,5.6,27.1,15.4c1.8,10.4-2.4,16.5-8.6,17.5c-2.3,0.4-5.1,0-7.9-1.2C458.2,327.7,458.3,323.3,457.6,319.7z"/>
				<path class="st2" d="M433,424.6c-21.1,0-35-12.8-39.1-36.2c-2.3-13.2-2.4-34.3,4.5-53.8c8.4-23.8,24.5-38.4,46.7-42.4
					c3.2-0.6,6.2-0.8,9.1-0.8c15.4,0,25.7,8.5,28.3,23.4c1.2,6.9,0.5,13.1-2.2,18c-2.9,5.3-7.7,8.7-13.5,9.8
					c-4.1,0.7-8.6,0.1-13-1.9l-6.3-2.8l1.2-6.8c0.5-3,0.7-5.4,0.6-7.3c-5.2,9.4-9.9,35.3-6.6,54c1.5,8.4,3.1,8.4,4.7,8.4
					c0.9,0,2.1-0.1,3.6-0.4c12.6-2.2,19.3-9.8,27.9-24l2.1-3.4l26.9-4.7l-5.9,14.7c-13,32.5-32.1,50.5-58.4,55.2
					C439.8,424.3,436.3,424.6,433,424.6L433,424.6z M434.3,314.8L434.3,314.8c-8.6,5.2-15,13.8-19.2,25.7
					c-5.7,16.4-5.6,34.4-3.8,44.9c3.4,19.1,13.3,21.6,21.7,21.6c2.3,0,4.7-0.2,7.4-0.7c3-0.5,5.9-1.3,8.6-2.3
					c-19.5,1.1-22.8-17.1-23.8-23c-2.2-12.7-1.6-30,1.6-45.1C428.2,328.9,430.6,321.1,434.3,314.8z"/>
			</g>
			<g>
				<path class="st2" d="M139.1,485c-6.8,1.2-12.1-3.5-11.9-10.3l2.6-75.4c0.2-6.9-5.1-13.4-11.9-14.5c0,0-13.2-2.2-25.1-1.2
					c-12.3,46.9-18.1,100.1-13.2,127.8c1.5,8.5,4.3,12.1,6.4,14.3c-14.4,2.5-35.8,5.8-40.7-21.9c-4.2-24,4.1-70.5,20.1-115.3
					c-16.3,4-26.9,9.7-28.8,19.3c1.3-0.2,4.3,3.9,4.9,7.6c1.1,6.4-4.8,11.6-13.1,13c-9.1,1.6-17.4-2.2-19.3-12.5
					C6,397.7,26.3,379,57.8,373.5c3.7-0.7,8.3-1.2,14-1.6c19.4-47.4,47.7-89.4,78.9-94.9c6.1-1.1,14.8-1.5,21.7,0l-6.8,191
					c-0.2,6.9-6,13.4-12.7,14.6L139.1,485L139.1,485z M133.3,299.5L133.3,299.5c-14.5,11.3-27.2,39.1-36.9,71.6
					c11,0.3,21.8,1.8,21.8,1.8c6.8,1,12.6-3.8,12.8-10.7L133.3,299.5z"/>
				<path class="st2" d="M71.5,536.1c-19.3,0-31.3-10.7-34.9-30.9c-3-17.1-0.4-43.9,6.8-74c-3.5,2.9-8,4.9-13.4,5.9
					c-1.8,0.3-3.7,0.5-5.5,0.5c-12.4,0-21.9-7.9-24-20.2c-2.1-12,2.9-24.1,14.2-34c10.2-9,25-15.6,41.6-18.6
					c2.7-0.5,5.9-0.9,9.4-1.3c14.8-34.7,43.7-88.3,83.5-95.3c4.1-0.7,8.7-1.1,13-1.1c4.5,0,8.6,0.4,12.1,1.2l7.2,1.6l-7.1,198.3
					c-0.4,11-9.2,21.1-20,23l-13.8,2.4c-6.4,1.1-12.8-0.8-17-5.2c-3.5-3.7-5.4-8.7-5.2-14.1L121,399c0.1-2.4-2.1-5.1-4.5-5.5
					c-0.1,0-8-1.3-16.7-1.3c-11,44.4-15.8,93.1-11.4,117.7c1.2,6.7,3.1,8.7,4.1,9.7l11.4,11.9l-16.3,2.9
					C82.5,535.2,77.1,536.1,71.5,536.1L71.5,536.1z M77.7,380.2L77.7,380.2l-4,11.1C58.2,434.6,50.1,480.2,54,502.1
					c2.4,13.9,9.1,16.4,18.2,16.3c-0.5-1.6-0.9-3.5-1.3-5.5c-5-28.5,0.5-82.6,13.3-131.6l0.4-1.6h-0.1l3.3-11.1
					c3.2-10.7,7.3-22.7,12.2-34.3c-7.1,11.8-13.8,25.6-20.1,40.9l-2.1,5L77.7,380.2L77.7,380.2z M128.7,379.9L128.7,379.9
					c6.2,4.4,10.3,11.8,10,19.7l-2.6,75.4c0,0.6,0.1,1,0.3,1.2c0.2,0.2,0.7,0.2,1.2,0.1l13.8-2.4c2.6-0.5,5.3-3.6,5.4-6.2l6.5-182.8
					c-3.6-0.1-7.6,0.2-11.1,0.8c-3.2,0.6-6.5,1.6-9.8,3.2l-2.6,73.7C139.6,370.2,135.1,376.7,128.7,379.9L128.7,379.9z M45.9,385.6
					L45.9,385.6c-7.8,2.7-14.5,6.4-19.6,10.9c-3.7,3.3-9.8,10-8.5,17.7c0.5,2.8,1.7,5.6,6.6,5.6c0.8,0,1.6-0.1,2.4-0.2
					c2.8-0.5,4.5-1.5,5.4-2.2l-6.8,1.2l2.4-12.6C29.9,396,37.3,389.8,45.9,385.6L45.9,385.6z M47.2,405.9L47.2,405.9
					c0.8,1.3,1.4,2.6,1.9,3.9c0.7-2.3,1.4-4.7,2.1-7C49.5,403.8,48.2,404.8,47.2,405.9L47.2,405.9z M108.2,362.9L108.2,362.9
					c6.3,0.6,11,1.2,11.3,1.2c1.5,0.2,2.6-0.7,2.7-2.2l1.3-35.5C118.2,336,113,348.3,108.2,362.9z"/>
			</g>
			<g>
				<path class="st2" d="M564.4,282.2c6.8-1.2,12.1,3.5,11.9,10.3l-1.7,50.3c-0.2,6.8-0.4,14.7-0.4,17.5c0,0,0,0,0.3,1.9
					c1.1,6,4.2,7.4,10.1,6.3c1.9-0.4,3.2-0.8,4.5-1.7c-3.1,15.9-6,23.2-17.5,25.3c-11.5,2-20.5-4.1-24.4-16.1
					c-4.7,10.9-13.1,22.8-28.3,25.4c-14.5,2.6-29.9-4-34.4-29.3c-5.1-28.8,4.5-77.7,41.7-84.2c12.2-2.1,18.1,1.6,19.2,7.8
					c0.1,0.8,0.3-1.1,0.4-4.4c0.1-3.2,5.7-6.8,12.5-8L564.4,282.2L564.4,282.2z M515.5,363.6L515.5,363.6
					c2.9,16.4,9.8,15.4,13.6,14.7c6.2-1.1,14-9.1,14.4-21.9l1.7-50c-0.5-2.6-3.4-7.8-10.2-6.6C516.9,303.1,512,343.5,515.5,363.6z"
					/>
				<path class="st2" d="M513.1,410.8c-19.3,0-33.3-13.9-37.4-37.1c-6.2-34.9,7.4-87.2,48.8-94.5c7.5-1.3,13.8-0.7,18.3,1.2
					c3.7-2.9,8.8-4.9,13.8-5.8l6.1-1.1c6.4-1.1,12.8,0.8,17,5.2c3.6,3.7,5.4,8.7,5.2,14.1l-1.7,50.2c-0.2,6.1-0.4,13.3-0.4,16.5
					l0.1,0.3c0,0,0,0,0,0c0.9-0.2,1-0.3,1.2-0.4l17.5-11.4l-4,20.5c-3.2,16.4-7.1,29.2-24.7,32.3c-9.9,1.8-19.2-1.1-25.7-7.6
					c-7.1,9.2-16.2,15-27,16.9C518,410.5,515.5,410.8,513.1,410.8L513.1,410.8z M520.1,298.8L520.1,298.8
					c-25.6,11-30.5,51.4-26.9,71.8c2.6,14.9,9.3,22.5,20,22.5c1.4,0,2.8-0.1,4.2-0.4c4.3-0.8,8.1-2.6,11.5-5.4
					c-0.7,0.1-1.6,0.2-2.6,0.2c-7.1,0-16.2-3.9-19.5-22.3c-2.1-11.9-1.4-28.3,1.8-41.7C511.4,311.4,515.6,303.6,520.1,298.8
					L520.1,298.8z M551.9,361.7L551.9,361.7l3.7,11.6c2.6,8,7.4,11.4,14.4,10.1c3.4-0.6,5.5-1.3,7.3-6.2c-4.4-1-10-4.2-11.6-13.5
					l-0.5-3.4c0-2.9,0.2-10.8,0.4-17.8l1.7-50.2c0-0.7-0.1-1-0.2-1.2c-0.2-0.2-0.7-0.2-1.2-0.1l-6.1,1.1c-2.4,0.4-4.2,1.2-5.3,1.8
					c-0.2,2.2-0.6,4.9-1.8,7.1c0.6,1.3,1,2.7,1.3,4.1l0.2,0.9l-1.8,50.9C552.3,358.5,552.1,360.1,551.9,361.7L551.9,361.7z
					 M536.3,308.7L536.3,308.7c-3.1,0.8-7.6,6.1-10.5,18.8c-3,12.8-3,26.6-1.6,34.6c0.9,5,2,7,2.5,7.7c0.3,0,0.6-0.1,0.9-0.1
					c1.4-0.3,6.8-4.2,7.1-13.4L536.3,308.7z"/>
			</g>
			<g>
				<path class="st2" d="M322.9,395.3c-0.1,0-0.2,0-0.3,0c-1.3,11.2-7.6,20.7-15.9,22.1c-1.4,0.3-2.7,0.3-3.7,0.3
					c-3.4-0.2-5.4-2.2-6.2-6.7c-0.3-1.9-0.5-4.1-0.4-7l2.4-66.3l12.8-2.3l0.2-8.8l-0.2,0v0l-12.8,2.2c0.2-5.1,0.3-9.8,0.4-12.4
					l0.4-10c0.3-6.9-4.9-10.7-11.4-8.7l-7,2.2c-6.5,2.1-12.1,9.4-12.4,16.3l-0.2,5.6c-0.1,2.7-0.3,7.3-0.4,12.4l-0.1,0l-7,1.2
					l-0.2,8.8l0.2,0v0l6.8-1.2c-0.2,5.1-0.3,9.8-0.4,12.4l-1.8,49.7c-0.2,5.3,0,10.1,0.7,14.2c2.8,15.7,11.9,22.2,22.7,22
					c1.6,0,3.2-0.2,4.9-0.4c11.5-2,31.8-10.4,37.8-47.3L322.9,395.3z"/>
				<path class="st2" d="M288.6,450.4c-16.2,0-27.8-11-31-29.3c-0.8-4.4-1.1-9.6-0.9-16l1.8-49.7c0-0.4,0-0.9,0.1-1.5l-6.4,1.1l0,0
					l-0.2,0l0-10.8l0.4-16.1l7.2-1.3c0.1-2.2,0.1-4,0.2-5.3l0.2-5.6c0.4-10.6,8.4-21.1,18.5-24.3l7.1-2.2c6.7-2.2,13.7-0.6,18.1,4
					c3.3,3.4,5,8.2,4.8,13.4l-0.4,10c0,0.5,0,1-0.1,1.5l12.6-2.2l0,10.8l-0.3,16.1l-12.9,2.3l-2.1,59.2c-0.1,1.7-0.1,3,0.1,4.2
					c3.4-0.8,7.5-6.3,8.4-14.4l0.8-6.6l27.9-4.8l-2,12.3c-6.8,41.8-31.1,52.1-45,54.6c-2.1,0.4-4.2,0.6-6.3,0.6H288.6L288.6,450.4z
					 M276.7,341.9L276.7,341.9l-0.1,1.6c-0.2,5.1-0.3,9.8-0.4,12.4l-1.8,49.7c-0.2,5,0,9.1,0.6,12.3c2.6,14.7,10.9,14.7,13.6,14.7
					h0.3c1.2,0,2.3-0.1,3.5-0.3c5.1-0.9,9.6-2.9,13.6-5.9c-1.2,0.1-2.3,0.2-3.4,0.1c-3.8-0.3-12.4-2.1-14.4-13.9
					c-0.5-2.8-0.6-5.6-0.5-8.9l2.3-64.2l-0.2,0l0.4-10.9c0.2-5.1,0.3-9.8,0.4-12.5l0.4-9.9l-6.9,2.2c-3,1-6.1,5-6.2,8.2l-0.2,5.6
					c-0.1,2.7-0.3,7.3-0.4,12.4L276.7,341.9z"/>
			</g>
		</g>
		<g>
			<g>
				<path class="st2" d="M322.6,269.2c6.5-1.1,13.9-6.8,18.5-12.6c-0.2,20.1-11.4,28-25.1,30.4c-15.9,2.8-27.8-3.2-31.2-22.4
					c-3.5-19.6,0.4-62.6,35.4-68.8c15.2-2.7,20.1,4.5,21.7,13.1c3.5,19.8-12.6,38.1-32.9,42.9c0.1,1.7,0.3,3.6,0.6,5.2
					C311.4,267.6,316.6,270.3,322.6,269.2L322.6,269.2z M323.1,204.6L323.1,204.6c-8.5,1.5-13.7,21.9-14.4,38.8
					c13.2-3,22.5-18.2,19.9-32.5C327.9,206.6,326.4,204,323.1,204.6z"/>
				<path class="st2" d="M309.1,296.5c-17.5,0-29.5-11.1-32.9-30.4c-4-22.6,1.1-71.8,42.5-79.1c2.6-0.5,5.2-0.7,7.5-0.7
					c13.2,0,22.1,7.6,24.4,20.9c3.7,21.1-9.9,42-31.8,50.6c0.6,2.1,1.3,2.7,1.3,2.7c0.4,0,0.6-0.1,0.9-0.1c3.7-0.7,9.4-4.7,13.2-9.4
					l15.9-19.8l-0.2,25.4c-0.2,21.5-11.7,35.4-32.4,39.1C314.6,296.3,311.8,296.5,309.1,296.5L309.1,296.5z M305.5,212.8
					L305.5,212.8c-14.4,14.3-13.5,41.8-12,50.3c2.5,13.9,9.2,15.8,15.5,15.8c1.7,0,3.5-0.2,5.5-0.5c0.7-0.1,1.5-0.3,2.2-0.4
					c-5.5-1.1-13.4-5.2-15.9-19.5c-0.2-1.3-0.4-2.7-0.5-4.1l-0.9,0.2l0.3-7.9l-0.1-1.7l0.2,0l0.1-1.9
					C300.1,238.7,301,224.5,305.5,212.8z"/>
			</g>
			<g>
				<path class="st2" d="M188.8,163.4c-3.1,0.1-5.9,0.4-8.6,0.9c-19.6,3.5-32.7,16.5-26.5,51.7c1.9,10.9,5,12.1,5.5,14
					c-14.7,2.6-23.8-1.3-26.5-16.6c-5-28.3,10.3-58.9,63-68.2c8.8-1.5,34.5-2.6,55.4-6.2c9.8-1.7,18.7-3.9,24-7.3
					c2.6,5,4.1,9.6,4.8,13.7c3,17.3-10.5,23.8-18.2,25.2c-9.8,1.7-23.2-1.9-42.4-4.8l-4.8,128.4c-0.3,6.8-6,13.4-12.8,14.6l-6.1,1.1
					c-6.8,1.2-12.1-3.4-11.8-10.3L188.8,163.4z"/>
				<g>
					<path class="st2" d="M188.8,163.4c-3.1,0.1-5.9,0.4-8.6,0.9c-19.6,3.5-32.7,16.5-26.5,51.7c1.9,10.9,5,12.1,5.5,14
						c-14.7,2.6-23.8-1.3-26.5-16.6c-5-28.3,10.3-58.9,63-68.2c8.8-1.5,34.5-2.6,55.4-6.2c9.8-1.7,18.7-3.9,24-7.3
						c2.6,5,4.1,9.6,4.8,13.7c3,17.3-10.5,23.8-18.2,25.2c-9.8,1.7-23.2-1.9-42.4-4.8l-4.8,128.4c-0.3,6.8-6,13.4-12.8,14.6
						l-6.1,1.1c-6.8,1.2-12.1-3.4-11.8-10.3L188.8,163.4z"/>
					<path class="st2" d="M193.5,318.6c-5.2,0-9.9-2-13.4-5.6c-3.5-3.7-5.4-8.7-5.2-14.1l4.6-125.6c-7.1,1.6-11.9,4.7-14.8,9.4
						c-4.1,6.7-4.9,17.4-2.4,31.6c1,5.9,2.3,7.6,3.1,8.7c0.7,0.9,1.7,2.3,2.3,4.3l2.7,9.5l-9.7,1.7c-3.3,0.6-6.3,0.9-9.2,0.9
						c-10.6,0-23.9-4.3-27.6-24.7c-5.5-31,10.1-67.9,70.1-78.5c3.8-0.7,9.9-1.2,17.6-1.9c11.4-1,25.5-2.2,37.8-4.4
						c10.3-1.8,17.3-3.9,20.8-6.1l8.1-5.1l4.4,8.4c2.8,5.4,4.8,10.8,5.7,16.2c2.3,13.2-2.8,21.6-7.5,26.4
						c-6.5,6.5-14.7,8.5-17.9,9.1c-8.2,1.4-18.9-0.2-31.7-2.5c-1.2-0.2-2.5-0.4-3.8-0.7l-4.4,118.4c-0.4,11-9.2,21.1-20.1,23
						l-6.1,1.1C195.9,318.5,194.7,318.6,193.5,318.6L193.5,318.6z M198,154.2L198,154.2l-5.4,145.4c0,0.7,0.1,1,0.2,1.2
						c0.2,0.2,0.7,0.2,1.2,0.1l6.1-1.1c2.6-0.5,5.4-3.6,5.4-6.2l5.2-138.4l9.8,1.5c5,0.8,9.7,1.6,13.9,2.4
						c8.9,1.6,15.9,2.8,21.4,2.8c1.6,0,2.9-0.1,4.2-0.3c2.5-0.4,6-1.8,8.4-4.2c1.7-1.7,3.7-4.6,2.6-10.8c-0.2-1.1-0.5-2.3-0.8-3.4
						c-4.7,1.6-10.5,3-17.8,4.2c-13.1,2.3-27.7,3.6-39.4,4.6c-7,0.6-13,1.1-16.1,1.7c-1.2,0.2-2.3,0.4-3.5,0.7L198,154.2L198,154.2z
						 M145.1,184.5L145.1,184.5c-4.1,8-5.4,17.1-3.6,27.2c0.9,4.9,2.3,7.4,4.1,8.7c-0.2-0.9-0.4-1.9-0.6-3
						C142.6,204.4,142.7,193.5,145.1,184.5z"/>
				</g>
			</g>
			<g>
				<path class="st2" d="M366.4,189.2c6.8-1.2,12.2,0.3,12.1,3.3c-0.1,3,3.4,1.2,7.8-4.1c0,0,2.6-3.2,10.8-4.6
					c7.7-1.4,12.9,4.2,14,10.7c1.1,6-1.7,13.1-10.1,14.6c-9.6,1.7-6.8-10.4-11.9-9.5c-5.1,0.9-7.7,4-11.3,8.7l-1.8,54.7
					c-0.2,6.8-5.9,13.4-12.7,14.6l0,0c-6.8,1.2-12.1-3.4-11.9-10.3l2.2-63.5C354,197,359.7,190.4,366.4,189.2z"/>
				<g>
					<path class="st2" d="M366.4,189.2c6.8-1.2,12.2,0.3,12.1,3.3c-0.1,3,3.4,1.2,7.8-4.1c0,0,2.6-3.2,10.8-4.6
						c7.7-1.4,12.9,4.2,14,10.7c1.1,6-1.7,13.1-10.1,14.6c-9.6,1.7-6.8-10.4-11.9-9.5c-5.1,0.9-7.7,4-11.3,8.7l-1.8,54.7
						c-0.2,6.8-5.9,13.4-12.7,14.6l0,0c-6.8,1.2-12.1-3.4-11.9-10.3l2.2-63.5C354,197,359.7,190.4,366.4,189.2z"/>
					<path class="st2" d="M361.3,286.7c-5.2,0-9.9-2-13.4-5.6c-3.5-3.7-5.4-8.7-5.2-14l2.2-63.5c0.4-11,9.2-21.1,20-23
						c5.9-1,11.5-0.6,15.5,1.4c1.9-1.9,6.4-5.2,15.2-6.8c1.3-0.2,2.6-0.3,3.8-0.3c10.2,0,18.6,7.5,20.5,18.2
						c1.8,10.3-3.6,22.4-17.3,24.8c-1.1,0.2-2.2,0.3-3.3,0.3c-6.6,0-10.3-3.6-12.4-7c-0.1,0.1-0.2,0.2-0.3,0.3l-1.7,51.8
						c-0.4,11-9.2,21.1-20,23C363.8,286.6,362.5,286.7,361.3,286.7L361.3,286.7z M370.9,197.6L370.9,197.6c-0.9,0-1.9,0.1-2.9,0.3
						c-2.6,0.5-5.3,3.5-5.4,6.2l-2.2,63.5c0,0.7,0.1,1,0.2,1.2c0.2,0.2,0.7,0.2,1.2,0.1c2.6-0.5,5.3-3.5,5.4-6.2l1.9-57.6l1.7-2.2
						c0.7-0.9,1.3-1.7,2.1-2.6c-0.1-0.1-0.3-0.3-0.4-0.4C371.9,199.2,371.3,198.5,370.9,197.6L370.9,197.6z M396.5,193L396.5,193
						c2.7,2.1,4,5.2,4.7,6.9c1.5-0.9,1.6-2.5,1.4-3.8c0-0.1-0.7-3.6-3.1-3.6c-0.2,0-0.5,0-0.7,0.1
						C397.9,192.7,397.1,192.8,396.5,193z"/>
				</g>
			</g>
			<g>
				<path class="st2" d="M543.4,157.1c5.4-1,9.7,2.8,9.6,8.3l-1.4,40.5c-0.2,5.5-0.3,11.9-0.3,14.1c0,0,0,0,0.3,1.5
					c0.8,4.8,3.4,6,8.2,5.1c1.5-0.3,2.6-0.6,3.7-1.4c-2.5,12.8-4.8,18.7-14.1,20.4c-9.3,1.6-16.5-3.3-19.7-13
					c-3.8,8.8-10.6,18.3-22.8,20.5c-11.7,2.1-24.1-3.2-27.7-23.6c-4.1-23.2,3.7-62.6,33.6-67.9c9.8-1.7,14.6,1.3,15.5,6.3
					c0.1,0.7,0.3-0.9,0.4-3.5c0.1-2.6,4.6-5.5,10-6.5L543.4,157.1L543.4,157.1z M504,222.7L504,222.7c2.3,13.2,7.9,12.4,11,11.9
					c5-0.9,11.3-7.3,11.6-17.6l1.4-40.3c-0.4-2.1-2.7-6.3-8.2-5.3C505.2,174,501.2,206.5,504,222.7z"/>
				<path class="st2" d="M502.1,262.4c-16.5,0-28.3-11.7-31.8-31.3c-5.1-28.8,6.2-72,40.7-78.1c5.9-1,11-0.7,14.8,0.7
					c3.1-2.2,7.1-3.7,11-4.4l4.9-0.9c5.7-1,11.4,0.7,15.2,4.7c3.2,3.3,4.8,7.8,4.7,12.6l-1.4,40.5c-0.1,3.8-0.2,7.8-0.3,10.7
					l16-10.4L572,227c-2.1,10.9-4.8,24.5-21.3,27.4c-7.9,1.4-15.3-0.6-20.8-5.3c-5.8,6.9-13.1,11.3-21.6,12.7
					C506.2,262.2,504.1,262.4,502.1,262.4L502.1,262.4z M501.6,176.4L501.6,176.4c-13.8,12-16.3,37.8-13.8,51.6
					c2,11.1,6.8,16.7,14.4,16.7c1,0,2-0.1,3.1-0.3c1.4-0.2,2.7-0.6,4-1.2c-5.6-1.2-11.6-5.8-13.9-19c-1.7-9.8-1.2-23.3,1.4-34.3
					C498,184.4,499.7,180,501.6,176.4L501.6,176.4z M535.1,221.1L535.1,221.1l2.9,8.9c2.3,7.2,6.4,7.2,7.8,7.2
					c0.5-0.1,1.2-0.1,1.9-0.2c1.6-0.3,2.8-0.5,3.8-2.2c-4.5-1.8-7.7-5.9-8.7-11.7l-0.4-3c0-2.6,0.2-9.4,0.3-14.4l1.3-39.6l-4.1,0.7
					c-1.3,0.2-2.3,0.6-2.9,0.9c-0.2,1.4-0.5,3.1-1.2,4.6c0.4,1,0.7,2,0.8,3l0.2,0.9l-1.4,41.2C535.4,218.6,535.2,219.8,535.1,221.1
					L535.1,221.1z M518.9,182L518.9,182c-1.6,2.1-3.5,5.9-5,12c-2.4,10.1-2.3,20.9-1.2,27.2c0.4,2.2,0.8,3.6,1.2,4.5
					c1.3-0.9,3.7-3.8,3.8-8.9L518.9,182z"/>
			</g>
			<g>
				<path class="st2" d="M430.6,177.9c6.8-1.2,12.2,0.3,12.1,3.3c-0.1,3,3.4,1.2,7.8-4.1c0,0,2.6-3.2,10.8-4.6
					c7.7-1.4,12.9,4.2,14,10.7c1.1,6-1.7,13.1-10.1,14.6c-9.6,1.7-6.8-10.4-11.9-9.5c-5.1,0.9-7.7,4-11.3,8.7l-1.8,54.7
					c-0.2,6.8-5.9,13.4-12.7,14.6l0,0c-6.8,1.2-12.1-3.4-11.9-10.3l2.2-63.5C418.1,185.7,423.9,179.1,430.6,177.9L430.6,177.9z"/>
				<g>
					<path class="st2" d="M430.6,177.9c6.8-1.2,12.2,0.3,12.1,3.3c-0.1,3,3.4,1.2,7.8-4.1c0,0,2.6-3.2,10.8-4.6
						c7.7-1.4,12.9,4.2,14,10.7c1.1,6-1.7,13.1-10.1,14.6c-9.6,1.7-6.8-10.4-11.9-9.5c-5.1,0.9-7.7,4-11.3,8.7l-1.8,54.7
						c-0.2,6.8-5.9,13.4-12.7,14.6l0,0c-6.8,1.2-12.1-3.4-11.9-10.3l2.2-63.5C418.1,185.7,423.9,179.1,430.6,177.9L430.6,177.9z"/>
					<path class="st2" d="M425.5,275.4c-5.2,0-9.9-2-13.4-5.6c-3.5-3.7-5.4-8.7-5.2-14.1l2.2-63.5c0.4-11,9.2-21.1,20-23
						c5.9-1,11.5-0.6,15.5,1.4c1.9-1.8,6.4-5.2,15.2-6.8c11.7-2,22.2,5.8,24.3,17.9c1.8,10.2-3.6,22.4-17.3,24.8
						c-1.1,0.2-2.2,0.3-3.3,0.3c-6.6,0-10.3-3.6-12.5-7c-0.1,0.1-0.2,0.2-0.3,0.3l-1.7,51.8c-0.4,10.8-8.8,20.7-19.3,22.9l-0.7,0.1
						C427.9,275.3,426.7,275.4,425.5,275.4L425.5,275.4z M435.1,186.3L435.1,186.3c-0.9,0-1.9,0.1-2.9,0.3c-2.6,0.5-5.3,3.5-5.4,6.2
						l-2.2,63.5c0,0.6,0.1,1,0.2,1.2c0.1,0.2,0.6,0.2,1.1,0.1l0.1,0c2.6-0.5,5.3-3.5,5.4-6.2l1.9-57.6l1.7-2.2
						c0.6-0.9,1.3-1.7,2.1-2.6c-0.1-0.1-0.3-0.3-0.4-0.4C436,187.9,435.5,187.2,435.1,186.3L435.1,186.3z M460.6,181.7L460.6,181.7
						c2.7,2.1,4,5.2,4.7,6.9c1.2-0.7,1.7-2,1.4-3.8c0-0.1-0.7-3.6-3.1-3.6c-0.2,0-0.5,0-0.7,0.1C462,181.4,461.3,181.5,460.6,181.7z
						"/>
				</g>
			</g>
			<g>
				<path class="st2" d="M267.7,206.6l-2.1,60.1c-0.1,2.3,0,4,0.3,5.6c0.8,4.8,3.3,5.9,8.1,5.1c3.1-0.5,4.4-1.3,5.3-2
					c1.3,12.3-6.5,19.2-15.7,20.9c-10.2,1.8-19.3-2.9-21.9-17.2c-0.6-3.2-0.7-7.1-0.6-11.3l1.9-56.8L267.7,206.6z"/>
				<path class="st2" d="M259.6,305.5c-13.9,0-23.8-9.3-26.5-24.9c-0.6-3.7-0.9-8-0.7-13.1l2.2-64l42.4-7.5l-2.4,71c0,0.4,0,0.7,0,1
					l12.1-9l1.5,15.5c1.6,15.5-7.6,27.8-22.9,30.5C263.2,305.3,261.4,305.5,259.6,305.5L259.6,305.5z M251.7,218.4L251.7,218.4
					L250,268c-0.1,3.9,0,7.1,0.5,9.5c1.8,10.3,7.1,10.3,9.1,10.3c0.8,0,1.6-0.1,2.5-0.2c1.6-0.3,3.3-0.8,4.7-1.8
					c-5-1.6-8.5-5.8-9.6-12c-0.4-2.4-0.5-4.8-0.4-7.6l1.7-49.1L251.7,218.4z"/>
			</g>
			<g>
				<path class="st2" d="M253.6,171.7c7.5-1.3,14.7,3.7,16.1,11.2c1.3,7.5-3.8,14.5-11.3,15.9c-7.5,1.3-14.5-3.6-15.9-11.1
					C241.2,180.2,246.1,173,253.6,171.7z"/>
				<path class="st2" d="M255.9,207.8c-10.9,0-20.2-7.8-22.1-18.6c-1.1-5.9,0.2-11.9,3.6-16.9c3.4-5,8.6-8.3,14.6-9.4
					c1.3-0.2,2.6-0.3,3.9-0.3c11,0,20.5,7.9,22.4,18.7c2.1,12.2-6.1,23.9-18.4,26.1C258.6,207.7,257.2,207.8,255.9,207.8
					L255.9,207.8z M256,180.3L256,180.3c-0.3,0-0.6,0-0.9,0.1c-1.7,0.3-2.7,1.4-3.1,2c-0.8,1.1-1,2.4-0.8,3.8
					c0.5,2.7,2.9,4.4,5.6,3.9c2.7-0.5,4.6-3,4.1-5.6C260.5,182.1,258.4,180.3,256,180.3z"/>
			</g>
		</g>
	</g>
	<g>
		<path class="st3" d="M324.8,265.7c6.5-1.1,13.9-6.8,18.5-12.6c-0.2,20.1-11.4,28-25.1,30.4c-15.9,2.8-27.8-3.2-31.2-22.4
			c-3.5-19.6,0.4-62.6,35.4-68.8c15.2-2.7,20.2,4.5,21.7,13.1c3.5,19.8-12.6,38.1-32.9,42.9c0.1,1.7,0.3,3.6,0.6,5.2
			C313.6,264.2,318.8,266.8,324.8,265.7L324.8,265.7z M325.3,201.1L325.3,201.1c-8.5,1.5-13.7,21.9-14.4,38.8
			c13.2-3,22.5-18.2,19.9-32.5C330.1,203.1,328.6,200.6,325.3,201.1z"/>
		<path class="st3" d="M191,159.9c-3.1,0.1-5.9,0.4-8.6,0.9c-19.6,3.5-32.7,16.5-26.5,51.7c1.9,10.9,5,12.1,5.5,14
			c-14.7,2.6-23.8-1.3-26.5-16.6c-5-28.3,10.3-58.9,63-68.2c8.7-1.5,34.5-2.6,55.4-6.2c9.8-1.7,18.7-3.9,24-7.3
			c2.7,5,4.1,9.6,4.8,13.7c3,17.3-10.5,23.8-18.2,25.2c-9.8,1.7-23.2-1.8-42.4-4.8l-4.8,128.8c-0.3,6.7-5.8,13.1-12.4,14.2l-6.8,1.2
			c-6.6,1.2-11.8-3.3-11.5-10L191,159.9z"/>
		<path class="st3" d="M370.5,185.4c5.8-1,10.4,0.6,10.3,3.6c-0.1,3,2.9,1.8,6.6-2.7c0,0,3.8-4.6,12-6c7.7-1.4,12.9,4.2,14,10.7
			c1,6-1.7,13.1-10.1,14.6c-9.6,1.7-6.8-10.4-11.9-9.5c-5.1,0.9-7.7,4-11.3,8.7l-1.9,56.6c-0.2,5.8-5.1,11.4-10.8,12.4l-3.7,0.6
			c-5.8,1-10.3-2.9-10.1-8.8l2.3-67.2c0.2-5.8,5.1-11.4,10.8-12.4L370.5,185.4z"/>
		<path class="st3" d="M434.6,174.1c5.7-1,10.4,0.6,10.3,3.6c-0.1,3,2.9,1.8,6.6-2.7c0,0,3.8-4.6,12-6c7.7-1.4,12.9,4.2,14,10.7
			c1,6-1.7,13.1-10.1,14.6c-9.6,1.7-6.8-10.4-11.9-9.5c-5.1,0.9-7.7,4-11.3,8.7l-1.9,56.6c-0.2,5.8-5,11.4-10.8,12.4l-3.7,0.7
			c-5.7,1-10.3-2.9-10.1-8.8l2.3-67.2c0.2-5.8,5.1-11.4,10.8-12.4L434.6,174.1z"/>
		<path class="st3" d="M269.8,203.2l-2.1,60.1c-0.1,2.3,0,4,0.3,5.6c0.8,4.8,3.3,5.9,8.1,5.1c3.1-0.5,4.3-1.3,5.3-2
			c1.3,12.3-6.5,19.2-15.7,20.9c-10.2,1.8-19.3-2.9-21.9-17.2c-0.6-3.2-0.7-7.1-0.6-11.3l1.9-56.8L269.8,203.2L269.8,203.2z
			 M255.8,168.2L255.8,168.2c7.5-1.3,14.7,3.7,16.1,11.2c1.3,7.5-3.8,14.5-11.3,15.9c-7.5,1.3-14.5-3.6-15.9-11.1
			C243.4,176.7,248.2,169.5,255.8,168.2z"/>
		<g>
			<path class="st3" d="M250.5,410.2c-7.9,1.4-11,7.5-10.3,11.3c0.4,2.3,2,4,4.8,3.8c0,3.5-4.2,5.1-9.3,6c-5.8,1-5.8,1-5.8,1
				c-5.9,0.3-8.8-4.7-6.4-11.1l27.8-75.9c2.4-6.4-1.2-10.7-8-9.5l-42.5,7.5c-15.1,2.7-22.5,17.2-20.9,25.9c1.1,6.2,6.6,8.5,11.5,7.6
				c5.5-1,10.9-5.4,9.5-13.3c-0.9-4.9-3-3.2-3.2-4.3c-0.5-3-0.5-3-0.5-3c6.4-1.4,14.3-3,17.6-3.5c3.3-0.6,4.1,4.2,1.8,10.7
				l-29.2,81.2c-2.3,6.4,1.3,10.8,8.1,9.6l44.2-7.8c16.4-2.9,23.7-17.6,22-27.4C260.7,413,256.9,409.1,250.5,410.2z"/>
			<path class="st3" d="M152.9,273.4C121.7,279,93.4,321,74,368.4c-5.7,0.4-10.3,1-14,1.7c-31.5,5.5-51.8,24.2-48.6,42.3
				c1.8,10.4,10.2,14.1,19.3,12.5c8.3-1.5,14.2-6.6,13.1-13c-0.7-3.7-3.6-7.9-4.9-7.6c1.9-9.7,12.4-15.4,28.8-19.3
				c-16,44.8-24.3,91.3-20.1,115.3c4.9,27.7,26.3,24.5,40.7,21.9c-2-2.1-4.9-5.7-6.4-14.3C76.9,480.2,82.7,427,95,380
				c11.9-1,25.1,1.2,25.1,1.2c6.8,1.1,12.1,7.7,11.9,14.5l-2.6,75.4c-0.2,6.8,5.1,11.5,11.9,10.3l13.8-2.4
				c6.8-1.2,12.5-7.8,12.7-14.6l6.8-191C167.8,271.9,159,272.4,152.9,273.4L152.9,273.4z M133.2,358.7L133.2,358.7
				c-0.2,6.8-6,11.6-12.8,10.7c0,0-10.8-1.6-21.8-1.8c9.7-32.5,22.4-60.2,36.9-71.6L133.2,358.7z"/>
			<path class="st3" d="M586.7,365.1c-6,1-9.1-0.4-10.1-6.3c-0.3-1.9-0.3-1.9-0.3-1.9c0-2.8,0.2-10.7,0.4-17.5l1.7-50.3
				c0.2-6.9-5.1-11.5-11.9-10.3l-6.1,1.1c-6.8,1.2-12.4,4.8-12.5,8c-0.1,3.2-0.3,5.2-0.4,4.4c-1.1-6.2-7-10-19.2-7.8
				c-36.2,6.4-46.3,53.2-42,82.2c-7.9,12.3-16.4,21.9-31.8,24.6c-10.2,1.8-16-0.7-18.5-15.2c-4.2-23.7,2.8-65.1,16.2-67.5
				c4.1-0.7,6.6,2.4,7.5,7.7c0.6,3.6,0.5,8-0.3,13c2.9,1.3,5.6,1.7,7.9,1.2c6.2-1.1,10.4-7.1,8.6-17.6c-1.7-9.8-8.2-18.8-27.1-15.4
				c-41.9,7.4-48,57.8-44.4,83.5c-7.8,12.4-16.3,21.9-31.8,24.7c-10.2,1.8-16-0.7-18.5-15.2c-0.5-2.6-0.8-5.6-1.1-8.6
				c25.3-6,45.5-29.1,41.1-53.6c-1.9-10.6-8.1-19.7-27.1-16.3c-43.7,7.7-48.5,61.5-44.2,86c0.1,0.4,0.2,0.7,0.2,1.1
				c-2.6,7.9-7.8,13.9-14.3,15c-1.4,0.3-2.7,0.3-3.7,0.3c-3.4-0.2-5.4-2.2-6.2-6.6c-0.3-1.9-0.5-4.1-0.4-7l2.4-66.3l12.8-2.2
				l0.2-8.8l-0.2,0v0l-12.7,2.2c0.2-5.1,0.3-9.8,0.4-12.4l0.4-10c0.3-6.9-4.9-10.8-11.4-8.7l-7.1,2.2c-6.5,2.1-12.1,9.4-12.4,16.3
				l-0.2,5.6c-0.1,2.7-0.3,7.3-0.4,12.4l-0.1,0l-7,1.2l-0.2,8.8l0.2,0v0l6.8-1.2c-0.2,5.1-0.3,9.7-0.4,12.4l-1.8,49.7
				c-0.2,5.3,0,10.1,0.7,14.2c2.8,15.7,11.9,22.2,22.7,22c1.6,0,3.2-0.2,4.9-0.4c8.8-1.5,22.7-6.9,31.5-25.7
				c6.8,12.9,19.2,16.7,34.7,14c21.8-3.8,35.5-18.3,44.6-34.7c5.9,17.9,19.6,23.4,37.3,20.3c21.8-3.8,35.5-18.3,44.6-34.7
				c6.1,18.6,19.6,23.4,32.4,21.1c15.2-2.7,23.6-14.5,28.3-25.4c3.9,12.1,12.9,18.2,24.4,16.1c11.5-2,14.4-9.4,17.5-25.3
				C589.9,364.3,588.7,364.7,586.7,365.1L586.7,365.1z M370.8,322.9L370.8,322.9c4-0.7,5.9,2.5,6.9,7.8c3.1,17.7-8.5,36.6-24.7,40.6
				C353.5,349.4,359.9,324.8,370.8,322.9L370.8,322.9z M545.7,353L545.7,353c-0.4,12.8-8.2,20.8-14.4,21.9
				c-3.8,0.7-10.7,1.7-13.6-14.7c-3.5-20,1.4-60.4,19.6-63.6c6.8-1.2,9.7,4,10.2,6.6L545.7,353z"/>
		</g>
		<path class="st3" d="M545,154.2c5.4-1,9.7,2.8,9.6,8.3l-1.4,40.5c-0.2,5.5-0.3,11.9-0.3,14.1c0,0,0,0,0.3,1.5
			c0.8,4.8,3.4,6,8.2,5.1c1.5-0.3,2.5-0.6,3.7-1.4c-2.5,12.8-4.8,18.7-14.1,20.4c-9.3,1.6-16.5-3.3-19.7-13
			c-3.8,8.8-10.6,18.3-22.8,20.5c-11.7,2.1-24.1-3.2-27.7-23.6c-4.1-23.2,3.7-62.6,33.6-67.9c9.8-1.7,14.6,1.3,15.5,6.3
			c0.1,0.7,0.3-0.9,0.4-3.5c0.1-2.6,4.6-5.5,10-6.5L545,154.2L545,154.2z M505.7,219.7L505.7,219.7c2.3,13.2,7.9,12.4,11,11.9
			c5-0.9,11.3-7.3,11.6-17.6l1.4-40.2c-0.4-2.1-2.7-6.3-8.2-5.3C506.8,171,502.8,203.6,505.7,219.7z"/>
	</g>
	<g>
		<path class="st3" d="M596.8,387.7v-15.4h3.1l3.7,10.9c0.3,1,0.6,1.8,0.7,2.3c0.2-0.6,0.5-1.4,0.8-2.5l3.7-10.8h2.7v15.4h-2v-12.9
			l-4.5,12.9h-1.9l-4.4-13.2v13.2H596.8L596.8,387.7z M615.6,387.7v-15.4h6.8c1.4,0,2.4,0.1,3.1,0.4c0.7,0.3,1.3,0.8,1.7,1.5
			c0.4,0.7,0.6,1.5,0.6,2.3c0,1.1-0.4,2-1.1,2.8c-0.7,0.7-1.8,1.2-3.3,1.4c0.6,0.2,1,0.5,1.2,0.8c0.6,0.6,1.1,1.2,1.7,2.1l2.7,4.2
			h-2.6l-2-3.2c-0.6-0.9-1.1-1.7-1.5-2.1c-0.4-0.5-0.7-0.8-1-1c-0.3-0.2-0.6-0.3-0.9-0.4c-0.2,0-0.6-0.1-1.1-0.1h-2.4v6.8H615.6
			L615.6,387.7z M617.7,379.1h4.4c0.9,0,1.7-0.1,2.2-0.3c0.5-0.2,0.9-0.5,1.2-0.9c0.3-0.4,0.4-0.9,0.4-1.4c0-0.7-0.3-1.3-0.8-1.8
			c-0.5-0.5-1.4-0.7-2.5-0.7h-4.9V379.1z"/>
	</g>
	<g>
		<path class="st4" d="M174,493.7c0.3-2.1,0.5-4.2,0.8-6.2c0.2-2,0.5-3.8,0.6-5.4c0.2-1.7,0.3-3.1,0.3-4.4c0-1.3,0-2.3-0.1-3
			c0-0.7,0.3-1.3,0.6-1.8c0.4-0.5,0.8-0.8,1.4-0.9c0.4-0.1,0.7,0,0.9,0.1c0.3,0.1,0.5,0.3,0.7,0.5c0.2,0.2,0.4,0.5,0.5,0.8
			c0.1,0.3,0.2,0.6,0.3,1c0,0.3,0.1,0.5,0.1,0.7c0,0.2,0,0.4,0,0.6c-0.1,1.4-0.2,2.9-0.4,4.4c-0.2,1.5-0.4,3.1-0.6,4.6
			c-0.2,1.6-0.4,3.1-0.6,4.7c-0.2,1.6-0.4,3.1-0.5,4.6l-0.1,1.6c-0.1,0.8-0.1,1.5-0.1,2.3c0,0.7,0,1.3,0.1,1.7
			c0,0.2,0.1,0.4,0.2,0.5c0.1,0.1,0.3,0.2,0.5,0.1c0.6-0.1,1.3-0.3,2-0.7c0.8-0.3,1.6-0.7,2.4-1.2c0.8-0.4,1.6-0.9,2.4-1.4
			c0.8-0.5,1.5-1,2.2-1.4c0.3-0.2,0.6-0.4,0.9-0.6c0.2-0.2,0.6-0.4,0.9-0.6c0.4-0.2,0.9-0.6,1.5-1c0.6-0.4,1.5-1,2.6-1.7
			c0.2-0.1,0.4-0.2,0.5-0.3c0.1-0.1,0.3-0.1,0.4-0.2c0.2,0,0.4,0,0.6,0c0.2,0.1,0.3,0.1,0.5,0.3c0.1,0.1,0.2,0.3,0.3,0.5
			c0.1,0.2,0.1,0.4,0.2,0.6c0.1,0.3,0.1,0.6,0.1,0.9c0,0.3,0,0.5-0.1,0.6c-0.1,0.3-0.3,0.6-0.5,0.9c-0.2,0.3-0.5,0.5-0.8,0.8
			c-0.3,0.2-0.5,0.4-0.8,0.6c-0.3,0.2-0.5,0.3-0.7,0.4c-0.2,0.1-0.5,0.3-0.9,0.5c-0.4,0.2-0.7,0.5-1.2,0.7c-0.4,0.3-0.9,0.5-1.3,0.8
			c-0.4,0.3-0.9,0.5-1.3,0.8c-0.4,0.2-0.7,0.4-1,0.6c-0.3,0.2-0.5,0.3-0.6,0.4c-0.6,0.4-1.2,0.7-1.9,1.2c-0.7,0.4-1.4,0.9-2.1,1.3
			c-0.7,0.4-1.4,0.8-2,1.1c-0.6,0.3-1.2,0.5-1.6,0.6c-0.6,0.1-1,0.1-1.3,0.1c-0.3,0-0.6-0.1-0.9-0.2c-0.3-0.1-0.6-0.2-0.9-0.4
			c-0.3-0.2-0.7-0.3-1.2-0.5c-0.4-0.2-0.8-0.4-1-0.8c-0.2-0.4-0.4-0.8-0.5-1.3c0-0.2-0.1-0.5-0.1-0.8c0-0.3,0-0.6,0-1
			c0-0.3,0-0.7,0-1c0-0.3,0-0.6,0.1-0.9L174,493.7z"/>
		<path class="st4" d="M209.7,497.8c-0.1-0.4-0.1-0.9-0.1-1.5c0-0.6-0.1-1.4-0.3-2.2c-0.4,0.4-0.9,1-1.4,1.5c-0.5,0.6-1,1.2-1.6,1.7
			c-0.5,0.6-1.1,1-1.7,1.5c-0.6,0.4-1.1,0.7-1.7,0.8c-0.4,0.1-0.9,0.1-1.3,0c-0.4-0.1-0.8-0.2-1.1-0.3c-0.9-0.5-1.6-1-2-1.5
			c-0.5-0.6-0.8-1.2-0.9-2.1c-0.1-0.4-0.1-0.7-0.1-1.2c0-0.4,0-0.9,0-1.4c0.1-2.4,0.7-4.7,1.7-6.9c1-2.2,2.3-4.2,4.1-6
			c0.7-0.7,1.4-1.2,2.1-1.5c0.7-0.3,1.5-0.5,2.3-0.7c0.3-0.1,0.7-0.1,1.1-0.1c0.4,0,0.8-0.1,1.2-0.1c0.3-0.1,0.6-0.2,0.8-0.3
			c0.2-0.1,0.4-0.1,0.7-0.2c0.4-0.1,0.8-0.1,1.1,0c0.3,0.1,0.6,0.2,0.8,0.3c0.2,0.2,0.4,0.4,0.5,0.6c0.1,0.2,0.2,0.5,0.3,0.8
			c0.1,0.4,0.1,0.8,0,1.1c-0.1,0.4-0.1,0.7-0.2,1.1l-0.7,12.1c0.1,0.6,0.1,1.2,0.2,1.8c0.1,0.5,0.1,1,0,1.5c0,0.1,0,0.3-0.1,0.5
			c0,0.2-0.1,0.4-0.2,0.6c-0.1,0.2-0.3,0.4-0.5,0.6c-0.2,0.2-0.5,0.3-0.8,0.4c-0.5,0.1-0.8,0.1-1.1,0.1c-0.3,0-0.5-0.1-0.7-0.1
			c-0.2-0.1-0.3-0.2-0.4-0.3C209.8,498.1,209.7,498,209.7,497.8z M201.2,492.5c0,0.2,0,0.5,0,0.9c0,0.4,0,0.8,0.1,1.2
			c0.1,0.4,0.2,0.7,0.4,1c0.2,0.3,0.5,0.4,0.9,0.3c0.6-0.1,1.2-0.4,1.6-0.7c0.5-0.4,0.9-0.8,1.3-1.3c0.5-0.6,1.1-1.3,1.6-2.1
			c0.5-0.8,1-1.5,1.5-2.3c0.4-0.8,0.8-1.6,1.1-2.4c0.3-0.8,0.5-1.6,0.6-2.4c0-0.4,0-1,0-1.5c0-0.6-0.1-1.1-0.2-1.5
			c0-0.2-0.1-0.4-0.2-0.5c-0.1-0.2-0.3-0.2-0.6-0.2c-0.7,0.1-1.4,0.4-2.1,0.8c-0.7,0.4-1.3,0.9-1.9,1.5c-0.6,0.6-1.1,1.3-1.6,2
			c-0.5,0.8-0.9,1.5-1.3,2.3c-0.4,0.8-0.6,1.6-0.9,2.5C201.4,490.9,201.2,491.7,201.2,492.5z"/>
		<path class="st4" d="M224.6,488.9c0.1-1.2,0.2-2.6,0.3-4.1c0.1-1.5,0.2-3,0.4-4.5c0.1-1.5,0.3-3,0.4-4.6c0.1-1.5,0.2-2.9,0.3-4.3
			c0.1-1.3,0.2-2.5,0.2-3.6c0.1-1.1,0.1-1.9,0-2.6l-0.1-1.8c0-0.1,0-0.3,0.1-0.5c0-0.2,0.1-0.3,0.1-0.5c0.1-0.2,0.2-0.3,0.3-0.4
			c0.1-0.1,0.3-0.2,0.6-0.3c0.5-0.1,0.8-0.1,1.2,0c0.3,0.1,0.6,0.3,0.9,0.5c0.2,0.2,0.4,0.5,0.6,0.9c0.1,0.3,0.2,0.7,0.3,1.1
			c0.1,0.4,0.1,0.8,0.1,1.2c0,0.4,0,0.8,0,1.1c-0.1,2.1-0.3,4.2-0.5,6.4c-0.2,2.2-0.4,4.3-0.5,6.5c0.5-0.6,1-1.3,1.5-1.9
			c0.6-0.6,1.2-1.2,1.8-1.7c0.7-0.5,1.3-0.9,2.1-1.3c0.7-0.4,1.5-0.6,2.2-0.8c0.8-0.1,1.5-0.2,2.1,0c0.6,0.1,1.2,0.4,1.6,0.7
			c0.5,0.3,0.8,0.8,1.1,1.3c0.3,0.5,0.5,1.1,0.6,1.7c0.1,0.3,0.1,0.6,0.1,1c0,0.3,0,0.7,0,1c-0.1,1.6-0.4,3-0.8,4.4
			c-0.5,1.3-1.1,2.5-1.8,3.7c-0.7,1.1-1.5,2.1-2.4,3c-0.9,0.9-1.8,1.8-2.8,2.5c-0.6,0.5-1.2,0.9-1.8,1.2c-0.6,0.3-1.2,0.5-1.8,0.6
			c-0.6,0.1-1.1,0.1-1.4,0.1c-0.3-0.1-0.7-0.2-0.9-0.4c0,0.2-0.1,0.3-0.2,0.5c-0.1,0.2-0.2,0.4-0.3,0.5c-0.1,0.2-0.3,0.3-0.5,0.4
			c-0.2,0.1-0.4,0.2-0.7,0.3c-0.8,0.2-1.5,0.1-1.9-0.3c-0.4-0.4-0.7-0.9-0.8-1.6c0-0.2-0.1-0.5-0.1-0.8c0-0.3,0-0.5,0-0.8
			L224.6,488.9z M236.9,477.4c-0.7,0.1-1.4,0.4-2.1,0.9c-0.7,0.5-1.5,1.1-2.2,1.8c-0.7,0.7-1.4,1.4-2.1,2.1c-0.6,0.7-1.2,1.4-1.7,2
			c-0.1,0.6-0.1,1.2-0.2,1.8c-0.1,0.6-0.1,1.2-0.2,1.8c-0.1,0.6-0.1,1.2-0.1,1.8c0,0.6,0,1.3,0,2l0,0.9l0.2,0.4
			c0.3-0.2,0.5-0.4,0.8-0.6c0.2-0.1,0.5-0.3,0.7-0.4c0.2-0.1,0.5-0.2,0.7-0.3c0.2-0.1,0.5-0.3,0.8-0.5c2.1-1.3,3.8-2.9,5.1-4.8
			c1.3-1.8,2-3.9,2.1-6.3c0-0.3,0-0.6,0-0.9c0-0.3,0-0.5-0.1-0.7c-0.1-0.4-0.3-0.7-0.5-0.9C237.8,477.3,237.4,477.3,236.9,477.4z"/>
		<path class="st4" d="M246.3,483.6c0.1-0.9,0.2-1.9,0.5-3c0.3-1.1,0.7-2.2,1.2-3.4c0.6-1.2,1.3-2.3,2.1-3.5
			c0.9-1.2,1.9-2.3,3.1-3.4c0.2-0.2,0.5-0.4,0.9-0.6c0.4-0.2,0.9-0.4,1.4-0.5c0.5-0.7,1.2-1.2,2.1-1.4c1.1-0.2,2.2-0.1,3,0.3
			c0.9,0.4,1.7,1.1,2.4,2c0.2,0.3,0.4,0.6,0.6,0.9c0.2,0.3,0.4,0.6,0.5,0.9c0.2,0.3,0.3,0.7,0.4,1.1c0.1,0.4,0.2,0.8,0.3,1.3
			c0.2,1.2,0.3,2.4,0.1,3.6c-0.1,1.3-0.4,2.5-0.9,3.8c-0.5,1.3-1.1,2.5-1.8,3.7c-0.8,1.2-1.6,2.4-2.7,3.4c-0.7,0.7-1.5,1.3-2.4,1.8
			c-0.9,0.5-1.9,0.8-3.1,1.1c-1.1,0.2-2.1,0.2-3,0.1c-0.9-0.1-1.6-0.4-2.3-0.9c-0.7-0.5-1.2-1-1.6-1.8c-0.4-0.7-0.7-1.6-0.9-2.5
			C246.2,485.7,246.2,484.7,246.3,483.6z M249.9,483.2c0,0.4,0,0.7,0,1c0,0.3,0.1,0.6,0.1,0.9c0.1,0.5,0.2,0.9,0.4,1.3
			c0.2,0.4,0.5,0.7,0.8,1c0.3,0.2,0.7,0.4,1.2,0.5c0.4,0.1,1,0.1,1.6,0c1.1-0.2,2.1-0.7,2.9-1.4c0.9-0.7,1.6-1.6,2.2-2.6
			c0.6-1,1-2,1.4-3.1c0.3-1.1,0.5-2,0.6-2.9c0-0.5,0.1-1,0.1-1.5c0-0.5,0-0.9-0.1-1.3c-0.1-0.4-0.2-0.7-0.4-1
			c-0.2-0.3-0.4-0.6-0.7-1c-0.2-0.2-0.4-0.5-0.5-0.7c-0.2-0.2-0.4-0.5-0.5-0.7c-0.1,0.2-0.2,0.4-0.3,0.6c-0.1,0.2-0.3,0.4-0.5,0.5
			c-0.2,0.2-0.6,0.4-1,0.5c-0.4,0.2-1,0.4-1.7,0.6c-0.5,0.3-0.9,0.6-1.3,1c-0.4,0.4-0.8,0.9-1.2,1.5c-0.4,0.5-0.8,1.1-1.1,1.7
			c-0.3,0.6-0.6,1.2-0.9,1.8c-0.2,0.6-0.4,1.2-0.6,1.8C250,482.2,250,482.7,249.9,483.2z"/>
		<path class="st4" d="M272.1,480.4c-0.2-1.2-0.3-2.5-0.3-3.9c0-1.4,0.1-2.7,0.2-4c-0.4,0.1-0.8,0.1-1.2,0c-0.4,0-0.8-0.1-1.1-0.2
			c-0.4-0.1-0.7-0.3-0.9-0.5c-0.3-0.2-0.4-0.5-0.5-0.8c0-0.1,0-0.3,0-0.5c0-0.2,0.1-0.4,0.1-0.6c0.1-0.2,0.2-0.4,0.3-0.6
			c0.1-0.2,0.3-0.3,0.5-0.3l2.9-0.5c0.3-0.1,0.4-0.2,0.5-0.5c0.1-0.3,0.1-0.5,0.1-0.8c0-0.9,0.1-1.7,0.1-2.3
			c0.1-0.6,0.1-1.2,0.1-1.7c0-0.5,0.1-0.8,0.1-1.1c0-0.3,0-0.5,0-0.7c0-0.2-0.1-0.4-0.1-0.5c0-0.2-0.1-0.4-0.2-0.7l0-0.2
			c0-0.1,0-0.3-0.1-0.5c0-0.2,0-0.5,0.1-0.9c0-0.3,0.1-0.6,0.3-0.9c0.2-0.3,0.5-0.5,1-0.6c0.4-0.1,0.7-0.1,1.1,0
			c0.3,0.1,0.6,0.3,0.8,0.5c0.2,0.2,0.4,0.5,0.6,0.8c0.1,0.3,0.3,0.6,0.3,1c0.1,0.4,0.1,0.7,0.1,1l-0.4,6.4c0.8-0.3,1.4-0.5,2-0.8
			c0.6-0.2,1.2-0.5,1.8-0.7c0.6-0.3,1.2-0.5,1.7-0.7c0.5-0.2,0.9-0.4,1.2-0.5c0.3-0.1,0.6-0.3,0.8-0.4c0.2-0.1,0.4-0.2,0.6-0.2
			c0.2,0,0.5-0.1,0.7-0.1c0.2,0,0.5,0,0.7,0.1c0.2,0.1,0.4,0.2,0.5,0.3c0.2,0.1,0.2,0.3,0.3,0.6c0.1,0.3,0.1,0.7,0,1
			c-0.1,0.3-0.2,0.6-0.4,0.8c-0.2,0.2-0.4,0.4-0.7,0.6c-0.3,0.2-0.5,0.3-0.8,0.4c-0.2,0.1-0.5,0.2-0.9,0.4c-0.4,0.2-0.7,0.3-1.2,0.5
			c-0.4,0.2-0.9,0.4-1.3,0.6c-0.5,0.2-0.9,0.4-1.3,0.6c-0.6,0.3-1.2,0.6-1.6,0.8c-0.5,0.2-0.8,0.4-1.2,0.5c-0.3,0.1-0.6,0.2-0.8,0.3
			c-0.2,0.1-0.4,0.1-0.5,0.1c-0.1,0.9-0.2,1.7-0.3,2.6c-0.1,0.8-0.1,1.6-0.1,2.3c0,0.7,0,1.4,0,1.9c0,0.6,0.1,1,0.1,1.3
			c0.1,0.4,0.2,0.8,0.3,1.1c0.1,0.3,0.3,0.6,0.5,0.9c0.2,0.2,0.5,0.4,0.8,0.5c0.3,0.1,0.7,0.1,1.2,0c0.8-0.1,1.5-0.5,2.2-1.1
			c0.7-0.6,1.3-1.2,1.8-2c0.6-0.8,1.1-1.6,1.5-2.5c0.5-0.9,0.9-1.7,1.3-2.5c0.1-0.3,0.3-0.5,0.6-0.5c0.1,0,0.2,0,0.3,0
			c0.1,0,0.3,0,0.4,0.1c0.1,0.1,0.2,0.1,0.4,0.2c0.1,0.1,0.2,0.2,0.2,0.4c0,0.1,0,0.2,0,0.3c-0.1,0.9-0.3,1.9-0.6,2.9
			c-0.3,1-0.6,2-1,3c-0.1,0.4-0.3,0.7-0.5,1.1c-0.2,0.4-0.5,0.7-0.8,1.1c-0.3,0.3-0.6,0.7-0.9,1c-0.3,0.3-0.6,0.6-0.9,0.9
			c-0.5,0.5-1,0.8-1.7,1.1c-0.6,0.3-1.3,0.4-1.9,0.6c-0.9,0.2-1.8,0.2-2.6,0c-0.8-0.2-1.5-0.6-2.1-1.1c-0.6-0.5-1.1-1.1-1.5-1.9
			C272.5,482.1,272.2,481.3,272.1,480.4z"/>
		<path class="st4" d="M303.2,480.6c-0.1-0.4-0.1-0.9-0.1-1.6c0-0.6-0.1-1.4-0.3-2.2c-0.4,0.4-0.9,1-1.4,1.5c-0.5,0.6-1,1.2-1.6,1.7
			c-0.5,0.6-1.1,1-1.7,1.5c-0.6,0.4-1.1,0.7-1.7,0.8c-0.4,0.1-0.9,0.1-1.3,0c-0.4-0.1-0.8-0.2-1.1-0.3c-0.9-0.5-1.6-1-2-1.5
			c-0.5-0.6-0.8-1.2-0.9-2c-0.1-0.4-0.1-0.8-0.1-1.2c0-0.4,0-0.9,0-1.4c0.1-2.4,0.7-4.7,1.7-6.9c1-2.2,2.3-4.2,4.1-6
			c0.7-0.7,1.4-1.2,2.1-1.5c0.7-0.3,1.5-0.5,2.3-0.7c0.3-0.1,0.7-0.1,1.1-0.1c0.4,0,0.8-0.1,1.2-0.1c0.3-0.1,0.6-0.2,0.8-0.3
			c0.2-0.1,0.4-0.1,0.7-0.2c0.4-0.1,0.8-0.1,1.1,0c0.3,0.1,0.6,0.2,0.8,0.3c0.2,0.2,0.4,0.4,0.5,0.6c0.1,0.2,0.2,0.5,0.3,0.8
			c0.1,0.4,0.1,0.8,0,1.1c-0.1,0.4-0.1,0.7-0.2,1.1l-0.7,12.1c0.1,0.6,0.1,1.2,0.2,1.8c0.1,0.5,0.1,1,0,1.5c0,0.1,0,0.3-0.1,0.5
			c0,0.2-0.1,0.4-0.2,0.6c-0.1,0.2-0.3,0.4-0.5,0.6c-0.2,0.2-0.5,0.3-0.8,0.4c-0.5,0.1-0.8,0.1-1.1,0.1c-0.3,0-0.5-0.1-0.7-0.1
			c-0.2-0.1-0.3-0.2-0.4-0.3C303.3,481,303.3,480.8,303.2,480.6z M294.7,475.4c0,0.2,0,0.5,0,0.9c0,0.4,0,0.8,0.1,1.2
			c0.1,0.4,0.2,0.7,0.4,1c0.2,0.3,0.5,0.4,0.9,0.3c0.6-0.1,1.2-0.4,1.6-0.7c0.5-0.4,0.9-0.8,1.3-1.3c0.5-0.6,1.1-1.3,1.6-2.1
			c0.5-0.8,1-1.5,1.5-2.4c0.4-0.8,0.8-1.6,1.1-2.4c0.3-0.8,0.5-1.6,0.6-2.4c0-0.4,0-1,0-1.5c0-0.6-0.1-1.1-0.2-1.5
			c0-0.2-0.1-0.4-0.2-0.5c-0.1-0.2-0.3-0.2-0.6-0.2c-0.7,0.1-1.4,0.4-2.1,0.8c-0.7,0.4-1.3,0.9-1.9,1.5c-0.6,0.6-1.1,1.3-1.6,2
			c-0.5,0.7-0.9,1.5-1.3,2.3c-0.4,0.8-0.6,1.6-0.9,2.5C294.9,473.8,294.8,474.6,294.7,475.4z"/>
		<path class="st4" d="M325.6,458.8c-0.5,0.1-1,0.3-1.6,0.7c-0.5,0.3-1.1,0.8-1.6,1.3c-0.5,0.5-1.1,1.1-1.7,1.7
			c-0.5,0.6-1.1,1.3-1.6,2c-0.3,0.3-0.5,0.6-0.8,0.9c-0.3,0.3-0.5,0.5-0.8,0.7c-0.1,0.4-0.3,0.9-0.4,1.4c-0.1,0.6-0.2,1.2-0.3,1.9
			c-0.1,0.7-0.2,1.4-0.2,2.1c-0.1,0.7-0.1,1.4-0.1,2c0,0.3,0,0.6,0,0.9c0,0.3,0,0.6,0,1c0,0.3,0,0.7,0,1.1c0,0.4,0,0.8-0.1,1.3
			c0,0.3-0.1,0.5-0.2,0.7c-0.1,0.2-0.3,0.4-0.4,0.5c-0.2,0.1-0.3,0.2-0.5,0.3c-0.2,0.1-0.3,0.1-0.4,0.1c-0.6,0.1-1,0.1-1.4-0.1
			c-0.4-0.2-0.7-0.7-0.8-1.4c0-0.2-0.1-0.4-0.1-0.7c0-0.2,0-0.5,0-0.8c0.1-1.4,0.1-2.8,0.2-3.9c0.1-1.2,0.2-2.3,0.3-3.3
			c0.1-1,0.3-2,0.4-2.9c0.2-0.9,0.3-1.8,0.5-2.7c0.2-0.9,0.3-1.9,0.5-2.8c0.2-1,0.4-2.1,0.6-3.2c0-0.3,0.2-0.5,0.6-0.8
			c0.3-0.2,0.7-0.4,1.2-0.5c0.6-0.1,1-0.1,1.4,0.1c0.4,0.2,0.6,0.5,0.7,1c0,0,0,0.1,0,0.3c0,0.1,0,0.3-0.1,0.4l-0.5,2.5
			c0.5-0.6,1.1-1.2,1.6-1.8c0.6-0.6,1.2-1.2,1.8-1.7c0.6-0.5,1.3-1,1.9-1.3c0.7-0.4,1.3-0.6,2-0.8c1.4-0.3,2.6-0.1,3.5,0.5
			c0.9,0.6,1.5,1.7,1.8,3.3c0.2,0.9,0.2,2,0.1,3.2c-0.1,1.2-0.3,2.5-0.5,3.9c-0.2,1.4-0.5,2.9-0.8,4.4c-0.3,1.6-0.5,3.1-0.7,4.7
			c-0.1,0.4-0.1,0.8-0.2,1.1c-0.1,0.3-0.2,0.6-0.4,0.8c-0.2,0.2-0.4,0.4-0.6,0.5c-0.2,0.1-0.5,0.2-0.9,0.3c-0.6,0.1-1,0.1-1.2-0.1
			c-0.3-0.2-0.4-0.5-0.5-1c-0.1-0.4-0.1-0.9-0.1-1.5c0-0.6,0.1-1.3,0.2-2c0.1-0.8,0.2-1.6,0.4-2.4c0.2-0.9,0.3-1.7,0.5-2.6
			c0.1-0.7,0.3-1.4,0.4-2.2c0.1-0.7,0.3-1.4,0.4-2.1c0.1-0.7,0.2-1.3,0.2-1.9c0-0.6,0-1.1-0.1-1.6c-0.1-0.5-0.3-0.8-0.5-1.1
			C326.5,458.8,326.1,458.7,325.6,458.8z"/>
		<path class="st4" d="M347.5,472.3c-0.1-0.4-0.1-0.9-0.1-1.6c0-0.6-0.1-1.4-0.3-2.2c-0.4,0.4-0.9,1-1.4,1.5c-0.5,0.6-1,1.2-1.6,1.7
			c-0.6,0.6-1.1,1-1.7,1.5c-0.6,0.4-1.1,0.7-1.7,0.8c-0.4,0.1-0.9,0.1-1.3,0c-0.4-0.1-0.8-0.2-1.1-0.3c-0.9-0.5-1.6-1-2-1.5
			c-0.5-0.5-0.8-1.2-0.9-2.1c-0.1-0.4-0.1-0.8-0.1-1.2c0-0.4,0-0.9,0-1.4c0.1-2.4,0.7-4.7,1.7-6.9c1-2.2,2.3-4.2,4.1-6
			c0.7-0.7,1.4-1.2,2.1-1.5c0.7-0.3,1.5-0.5,2.3-0.7c0.3-0.1,0.7-0.1,1.1-0.1c0.4,0,0.8-0.1,1.2-0.1c0.3-0.1,0.6-0.2,0.8-0.3
			c0.2-0.1,0.4-0.1,0.7-0.2c0.4-0.1,0.8-0.1,1.1,0c0.3,0.1,0.6,0.2,0.8,0.3c0.2,0.2,0.4,0.4,0.5,0.6c0.1,0.2,0.2,0.5,0.3,0.8
			c0.1,0.4,0.1,0.8,0,1.1c-0.1,0.4-0.1,0.7-0.2,1.1l-0.7,12.1c0.1,0.6,0.1,1.2,0.2,1.8c0.1,0.5,0.1,1,0,1.5c0,0.1,0,0.3-0.1,0.5
			c0,0.2-0.1,0.4-0.2,0.6c-0.1,0.2-0.3,0.4-0.5,0.6c-0.2,0.2-0.5,0.3-0.8,0.4c-0.4,0.1-0.8,0.1-1.1,0.1c-0.3,0-0.5-0.1-0.7-0.1
			c-0.2-0.1-0.3-0.2-0.4-0.3C347.6,472.7,347.5,472.5,347.5,472.3z M339,467.1c0,0.2,0,0.5,0,0.9c0,0.4,0,0.8,0.1,1.2
			c0.1,0.4,0.2,0.7,0.4,1c0.2,0.3,0.5,0.4,0.9,0.3c0.6-0.1,1.2-0.4,1.6-0.7c0.5-0.4,0.9-0.8,1.3-1.3c0.5-0.6,1.1-1.3,1.6-2.1
			c0.5-0.8,1-1.5,1.5-2.3c0.4-0.8,0.8-1.6,1.1-2.4c0.3-0.8,0.5-1.6,0.6-2.4c0-0.4,0-1,0-1.5c0-0.6-0.1-1.1-0.2-1.5
			c0-0.2-0.1-0.4-0.2-0.5c-0.1-0.2-0.3-0.2-0.6-0.2c-0.7,0.1-1.4,0.4-2.1,0.8c-0.7,0.4-1.3,0.9-1.9,1.5c-0.6,0.6-1.1,1.3-1.6,2
			c-0.5,0.7-0.9,1.5-1.3,2.3c-0.4,0.8-0.6,1.6-0.9,2.5C339.2,465.5,339,466.3,339,467.1z"/>
		<path class="st4" d="M359.8,471.2c-0.8,0.1-1.4-0.1-2-0.6c-0.6-0.4-0.9-1-1-1.7c-0.2-1,0-2,0.7-2.9c0.7-0.9,1.5-1.5,2.5-1.7
			c0.8-0.2,1.5,0,2.1,0.5c0.6,0.5,1,1.3,1.2,2.3c0.3,1.7-0.1,3.7-1.1,6.2c-1.1,2.5-2.1,3.8-3.2,4c-0.3,0.1-0.7,0-1-0.2
			c-0.3-0.2-0.5-0.5-0.6-0.8c-0.1-0.4,0-0.8,0.1-1.1c0.1-0.3,0.5-0.7,1-1.3C359.1,473.2,359.6,472.3,359.8,471.2z"/>
		<path class="st4" d="M373,467.1c0.1-1.8,0.2-3.5,0.4-5c0.1-1.6,0.3-3,0.4-4.5c0.1-1.4,0.3-2.8,0.4-4.1c0.1-1.3,0.2-2.7,0.3-4.1
			c0-0.5,0-1,0-1.5c-0.1-0.5-0.1-1-0.1-1.5c0-0.2,0.1-0.4,0.2-0.5c0.1-0.2,0.3-0.3,0.4-0.5c0.2-0.1,0.4-0.3,0.6-0.4
			c0.2-0.1,0.4-0.2,0.6-0.2c0.4-0.1,0.8-0.1,1,0c0.3,0,0.5,0.1,0.7,0.3c0.2,0.1,0.4,0.3,0.5,0.5c0.1,0.2,0.2,0.5,0.2,0.7
			c0.1,0.5,0.1,1,0,1.5c-0.1,0.5-0.2,1.1-0.3,1.8c0.6-0.7,1.2-1.3,1.8-1.9c0.6-0.6,1.3-1.2,2-1.7c0.7-0.5,1.4-0.9,2.2-1.3
			c0.8-0.4,1.6-0.6,2.4-0.8c0.4-0.1,0.8-0.1,1.2,0c0.4,0,0.8,0.2,1.2,0.4c0.4,0.2,0.7,0.5,1,0.9c0.3,0.4,0.5,0.9,0.7,1.5
			c0.5-0.5,1.1-1.1,1.7-1.6c0.6-0.6,1.2-1.1,1.8-1.5c0.6-0.5,1.3-0.9,1.9-1.2c0.7-0.3,1.3-0.6,2-0.7c1-0.2,1.8-0.2,2.5-0.1
			c0.7,0.1,1.2,0.4,1.7,0.7c0.5,0.4,0.8,0.8,1.1,1.3c0.3,0.5,0.4,1.1,0.6,1.8c0.1,0.7,0.2,1.4,0.2,2.2c0,0.8,0,1.5,0,2.2
			c-0.1,1.8-0.3,3.5-0.5,5.1c-0.2,1.6-0.5,3.2-0.8,4.9c-0.1,0.4-0.2,0.8-0.2,1.2c-0.1,0.4-0.2,0.9-0.3,1.2c-0.1,0.4-0.3,0.7-0.6,1
			c-0.2,0.3-0.6,0.5-0.9,0.5c-0.9,0.2-1.5,0.1-1.9-0.1c-0.4-0.2-0.6-0.6-0.7-1.2c0-0.1-0.1-0.3-0.1-0.5c0-0.2,0-0.4,0-0.6
			c0-0.2,0.1-0.6,0.2-1c0.1-0.5,0.3-1,0.4-1.5c0.2-0.5,0.3-1.1,0.4-1.6c0.1-0.5,0.2-1,0.3-1.4c0.1-0.7,0.2-1.4,0.3-2.3
			c0.1-0.9,0.2-1.7,0.3-2.6c0.1-0.9,0.1-1.7,0.1-2.5c0-0.8,0-1.4-0.1-1.9c0-0.2-0.1-0.4-0.2-0.6c-0.1-0.2-0.2-0.4-0.3-0.5
			c-0.1-0.1-0.3-0.2-0.5-0.3c-0.2-0.1-0.5-0.1-0.8,0c-0.4,0.1-0.9,0.3-1.5,0.7c-0.6,0.4-1.1,0.8-1.7,1.3c-0.6,0.5-1.1,1.1-1.6,1.7
			c-0.5,0.6-1,1.2-1.3,1.8c-0.2,0.4-0.5,0.7-0.7,1c-0.2,0.3-0.5,0.5-0.7,0.7c0,0.1-0.1,0.3-0.1,0.6c-0.1,0.4-0.1,0.8-0.2,1.3
			c-0.1,0.5-0.2,1-0.2,1.6s-0.1,1.1-0.2,1.6c-0.1,0.5-0.1,0.9-0.2,1.2c0,0.3-0.1,0.5-0.1,0.5c0,0.4,0,0.9,0,1.3c0,0.4,0,0.9,0,1.3
			c0,0.4,0,0.8,0.1,1.3c0,0.5,0,0.9-0.1,1.3c-0.1,0.4-0.3,0.8-0.5,1.1c-0.3,0.3-0.7,0.5-1.3,0.6c-0.3,0.1-0.6,0-0.8-0.1
			c-0.3-0.1-0.5-0.2-0.7-0.4c-0.2-0.2-0.4-0.4-0.6-0.7c-0.2-0.3-0.3-0.5-0.3-0.8c0.1-1.4,0.2-2.6,0.3-3.7c0.1-1.1,0.3-2.2,0.4-3.2
			c0.1-1,0.3-2.1,0.4-3.1c0.1-1,0.2-2.2,0.3-3.4c0-0.3,0-0.6,0-0.9c0-0.3,0-0.5-0.1-0.7c-0.1-0.3-0.2-0.6-0.4-0.8
			c-0.2-0.2-0.5-0.3-0.8-0.2c-0.6,0.1-1.2,0.3-1.7,0.7c-0.5,0.4-1.1,0.8-1.7,1.5c-0.6,0.6-1.2,1.4-1.9,2.4c-0.7,0.9-1.5,2.1-2.4,3.4
			c-0.1,0.2-0.2,0.7-0.2,1.3c-0.1,0.6-0.2,1.3-0.2,2c-0.1,0.7-0.1,1.4-0.2,2c-0.1,0.6-0.1,1-0.1,1.2c-0.1,0.6-0.1,1.2,0,1.6
			c0,0.4,0,0.8,0.1,1.2c0,0.2,0,0.5,0,0.9c0,0.4,0,0.8-0.1,1.3c-0.1,0.4-0.2,0.8-0.4,1.2c-0.2,0.4-0.6,0.6-1,0.7
			c-0.7,0.1-1.3,0-1.8-0.2c-0.5-0.3-0.8-0.7-0.9-1.3c0-0.1,0-0.2,0-0.3C373,467.3,373,467.2,373,467.1z"/>
		<path class="st4" d="M408.8,453.1c-0.1-0.6-0.1-1.2,0.2-1.7c0.3-0.5,0.6-0.9,1.2-1.1c0.1-0.3,0.3-0.8,0.5-1.4
			c0.2-0.6,0.5-1.3,0.9-2c0.4-0.7,0.8-1.5,1.3-2.3c0.5-0.8,1.1-1.5,1.8-2.2c0.7-0.7,1.4-1.3,2.2-1.8c0.8-0.5,1.7-0.8,2.7-1
			c0.8-0.2,1.6-0.2,2.3-0.1c0.7,0.1,1.2,0.3,1.7,0.6c0.5,0.3,0.9,0.7,1.2,1.1c0.3,0.5,0.5,1,0.6,1.6c0.1,0.5,0.1,1,0.1,1.5
			c-0.1,0.9-0.3,1.6-0.7,2.4c-0.4,0.7-1,1.4-1.7,2c-0.7,0.6-1.4,1.1-2.2,1.6c-0.8,0.5-1.7,0.9-2.5,1.3c-0.8,0.4-1.7,0.7-2.5,0.9
			c-0.8,0.3-1.5,0.5-2.1,0.7c-0.1,0.3-0.1,0.6-0.1,1.1c0,0.4,0,0.8,0.1,1.2c0.2,0.8,0.6,1.4,1.4,1.8c0.8,0.3,1.7,0.4,2.9,0.2
			c0.7-0.1,1.3-0.3,1.9-0.6c0.6-0.3,1.2-0.6,1.7-0.9c0.5-0.3,1-0.7,1.4-1.1c0.4-0.4,0.8-0.7,1.2-1.1c0.5-0.4,0.9-0.8,1.3-1.2
			c0.4-0.3,0.8-0.5,1.2-0.6c0.4-0.1,0.6,0,0.7,0.1c0.1,0.2,0.2,0.3,0.3,0.5c0,0.1,0,0.2,0,0.3c0,0.1,0,0.2,0,0.3
			c0,0.4-0.1,0.8-0.2,1.2c-0.2,0.4-0.4,0.8-0.6,1.1c-1.3,1.5-2.7,2.6-4.2,3.4c-1.5,0.8-3.2,1.4-5,1.7c-0.3,0.1-0.8,0.1-1.2,0.2
			c-0.5,0-1,0.1-1.5,0c-0.5,0-1.1-0.1-1.6-0.3c-0.5-0.2-1-0.4-1.5-0.7c-0.5-0.3-0.9-0.8-1.2-1.3c-0.4-0.6-0.6-1.3-0.8-2.1
			c-0.1-0.7-0.2-1.5-0.2-2.4c-0.2,0-0.4-0.1-0.6-0.2C409,453.7,408.8,453.4,408.8,453.1z M421.4,444.5c0-0.1,0-0.1,0-0.2
			c0-0.1,0-0.1,0-0.2c-0.1-0.4-0.3-0.7-0.6-0.8c-0.3-0.1-0.7-0.2-1.1-0.1c-0.6,0.1-1.2,0.4-1.8,0.9c-0.6,0.5-1.1,1-1.5,1.6
			c-0.5,0.6-0.8,1.2-1.2,1.9c-0.3,0.7-0.5,1.2-0.7,1.8c1-0.3,2-0.6,2.8-1c0.8-0.4,1.6-0.8,2.1-1.2c0.6-0.4,1.1-0.9,1.4-1.3
			C421.1,445.4,421.3,444.9,421.4,444.5z"/>
		<path class="st4" d="M430.9,456.8c-0.3,0.3-0.7,0.5-1.3,0.6c-0.2,0-0.5,0-0.7,0c-0.2-0.1-0.4-0.2-0.6-0.3
			c-0.2-0.1-0.3-0.3-0.4-0.5c-0.1-0.2-0.2-0.4-0.2-0.6c-0.1-0.3,0-0.6,0-0.8c0.1-0.2,0.2-0.4,0.4-0.6c0.2-0.2,0.3-0.4,0.5-0.5
			c0.2-0.1,0.4-0.3,0.5-0.4c0.5-0.5,1.1-1.1,1.7-1.8c0.6-0.7,1.3-1.4,1.9-2.2c0.7-0.8,1.3-1.6,1.9-2.4c0.6-0.8,1.3-1.6,1.8-2.3
			l0.8-1.1c-0.4-0.7-0.7-1.3-1-1.8c-0.3-0.5-0.6-0.9-0.9-1.3c-0.3-0.4-0.6-0.7-0.9-1.1c-0.3-0.3-0.6-0.7-1-1.1
			c-0.3-0.3-0.5-0.6-0.7-0.8c-0.2-0.2-0.3-0.4-0.3-0.6c0-0.1,0-0.3,0-0.6c0-0.2,0.1-0.4,0.2-0.7c0.1-0.2,0.3-0.4,0.5-0.6
			c0.2-0.2,0.5-0.3,0.8-0.4c0.5-0.1,0.9-0.1,1.3,0.1c0.4,0.1,0.8,0.3,1.1,0.6c0.3,0.3,0.6,0.5,0.9,0.9c0.3,0.3,0.5,0.6,0.7,0.9
			c0.1,0.2,0.3,0.4,0.4,0.6c0.2,0.3,0.3,0.6,0.5,0.9c0.2,0.3,0.3,0.6,0.5,0.9c0.1,0.3,0.3,0.6,0.4,0.8c0.5-0.7,1-1.5,1.5-2.3
			c0.5-0.8,1-1.7,1.6-2.7c0.2-0.3,0.4-0.7,0.6-1c0.2-0.4,0.4-0.7,0.6-1c0.2-0.3,0.5-0.6,0.7-0.8c0.3-0.2,0.6-0.4,0.9-0.4
			c0.6-0.1,1,0,1.3,0.2c0.3,0.2,0.5,0.6,0.6,1.1c0.1,0.5,0.1,1,0,1.4c-0.1,0.5-0.3,0.8-0.5,1.1c-0.4,0.4-0.7,0.9-1.2,1.5
			c-0.4,0.6-0.8,1.2-1.3,1.8c-0.4,0.6-0.8,1.2-1.3,1.8c-0.4,0.6-0.8,1.2-1.1,1.6c-0.1,0.2-0.3,0.4-0.4,0.6c-0.1,0.2-0.1,0.4-0.1,0.7
			c0,0.1,0.1,0.3,0.2,0.5c0.1,0.2,0.3,0.4,0.4,0.6c0.2,0.2,0.3,0.5,0.5,0.7c0.2,0.2,0.3,0.4,0.4,0.6c0.2,0.4,0.6,0.8,1,1.3
			c0.4,0.5,0.8,1,1.3,1.5c0.4,0.5,0.8,1.1,1.2,1.7c0.3,0.6,0.6,1.1,0.7,1.7c0.1,0.4,0.1,0.7,0,1c0,0.3-0.1,0.6-0.2,0.9
			c-0.1,0.3-0.3,0.5-0.4,0.6c-0.2,0.2-0.3,0.3-0.5,0.3c-0.4,0.1-0.7,0.1-0.9,0c-0.2,0-0.5-0.1-0.7-0.3c-0.2-0.1-0.4-0.3-0.5-0.6
			c-0.2-0.2-0.3-0.5-0.5-0.8c-0.3-0.5-0.7-1.1-1.1-1.7c-0.4-0.6-0.9-1.3-1.3-1.9c-0.5-0.6-0.9-1.2-1.3-1.7c-0.4-0.5-0.7-0.9-0.9-1.2
			c-0.3,0.4-0.7,0.8-1.1,1.2c-0.4,0.4-0.8,1-1.4,1.6c-0.6,0.7-1.3,1.5-2.2,2.5C433.5,453.9,432.3,455.2,430.9,456.8z"/>
		<path class="st4" d="M451.6,449.7c0.1-0.9,0.1-1.9,0.2-3.1c0.1-1.2,0.2-2.4,0.3-3.8c0.1-1.3,0.2-2.7,0.3-4c0.1-1.4,0.2-2.7,0.3-4
			c0-0.1,0-0.2,0.1-0.3c0.1-0.2,0.2-0.3,0.3-0.5c0.1-0.2,0.3-0.3,0.5-0.5c0.2-0.1,0.5-0.3,0.8-0.3c0.2,0,0.5-0.1,0.7-0.1
			c0.2,0,0.5,0,0.7,0.1c0.2,0.1,0.4,0.2,0.5,0.3c0.1,0.1,0.2,0.3,0.3,0.6c0,0,0,0.1,0,0.1c0,0,0,0.1,0,0.1l-0.2,2.4
			c-0.2,2.7-0.4,5.5-0.6,8.2c-0.2,2.7-0.4,5.5-0.6,8.2c0,0.1,0,0.2-0.1,0.4c0,0.1-0.1,0.3-0.2,0.4c-0.1,0.1-0.2,0.3-0.3,0.4
			c-0.1,0.1-0.3,0.2-0.5,0.2c-0.4,0.1-0.7,0.1-1,0c-0.3-0.1-0.6-0.2-0.9-0.4c-0.2-0.2-0.4-0.4-0.6-0.7c-0.2-0.3-0.3-0.5-0.3-0.8
			c0-0.1,0-0.1,0-0.2c0-0.1,0-0.1,0-0.2L451.6,449.7z M453.1,425.9c0-0.3,0.1-0.7,0.2-1.2c0.1-0.5,0.4-0.9,0.8-1.4
			c0.2-0.2,0.5-0.3,0.8-0.5c0.3-0.2,0.5-0.3,0.7-0.3c0.1,0,0.3,0,0.5,0.1c0.2,0.1,0.3,0.2,0.5,0.3c0.2,0.1,0.3,0.3,0.5,0.4
			c0.4,0,0.6,0,0.8,0.3c0.2,0.2,0.3,0.5,0.3,0.8c0,0.2,0.1,0.5,0.1,0.6c0,0.2,0,0.4,0,0.5c0,0.3-0.1,0.6-0.3,0.9
			c-0.2,0.3-0.4,0.6-0.7,0.8c-0.3,0.2-0.6,0.4-0.9,0.6c-0.3,0.2-0.6,0.3-0.9,0.3c-0.3,0.1-0.6,0.1-0.8,0c-0.2-0.1-0.5-0.3-0.8-0.6
			c-0.2-0.2-0.3-0.3-0.4-0.5c0-0.1-0.1-0.2-0.1-0.3c0-0.2,0-0.3,0-0.4C453.1,426.2,453.1,426.1,453.1,425.9z"/>
		<path class="st4" d="M461.1,443.2c0.1-1.2,0.3-2.4,0.6-3.8c0.3-1.3,0.8-2.6,1.3-3.9c0.6-1.3,1.2-2.5,2-3.7c0.8-1.2,1.7-2.1,2.8-3
			c0.3-0.3,0.7-0.5,1.2-0.7c0.4-0.2,0.9-0.3,1.3-0.4c0.5-0.1,0.9-0.1,1.4-0.1c0.4,0,0.8,0.1,1.2,0.2c0.3,0.1,0.6,0.4,0.9,0.7
			c0.2,0.3,0.4,0.7,0.5,1.1c0.1,0.3,0.1,0.7,0,1.1c0,0.4-0.1,0.7-0.3,1.1c-0.2,0.3-0.4,0.6-0.6,0.8c-0.3,0.2-0.6,0.4-1,0.5
			c-0.3,0.1-0.6,0.1-0.9,0c-0.3-0.1-0.6-0.2-0.9-0.2c-0.1-0.1-0.3-0.1-0.4-0.2s-0.3-0.1-0.5-0.1c-0.5,0.4-1,0.8-1.5,1.3
			c-0.4,0.5-0.8,1.1-1.2,1.7c-0.3,0.6-0.6,1.2-0.9,1.9c-0.3,0.7-0.5,1.3-0.7,2c-0.2,0.7-0.3,1.3-0.4,1.9c-0.1,0.6-0.2,1.2-0.2,1.7
			c0,0.4-0.1,0.8,0,1.2c0,0.5,0,0.9,0.1,1.3c0.1,0.3,0.1,0.6,0.2,0.8c0.1,0.2,0.2,0.5,0.4,0.6c0.2,0.2,0.4,0.3,0.6,0.4
			c0.2,0.1,0.5,0.1,0.8,0c0.5-0.1,1-0.3,1.5-0.5c0.5-0.2,0.9-0.5,1.4-0.8c0.4-0.3,0.9-0.6,1.3-1c0.4-0.4,0.8-0.7,1.2-1.1
			c0.2-0.2,0.5-0.5,0.7-0.7c0.2-0.2,0.5-0.5,0.7-0.7c0.2-0.2,0.4-0.4,0.6-0.5c0.2-0.1,0.4-0.2,0.5-0.2c0.2,0,0.4,0,0.6,0
			c0.2,0.1,0.3,0.2,0.4,0.5c0,0.2,0,0.4,0,0.7c-0.1,0.6-0.3,1.2-0.5,1.7c-0.3,0.5-0.6,1-0.9,1.4c-0.4,0.4-0.8,0.8-1.2,1.2
			c-0.4,0.4-0.9,0.7-1.3,1c-0.8,0.6-1.7,1.2-2.5,1.6c-0.9,0.4-1.6,0.7-2.3,0.8c-0.2,0-0.4,0.1-0.7,0.1c-0.3,0-0.5,0-0.8-0.1
			c-1.3-0.3-2.3-0.8-3-1.6c-0.7-0.8-1.2-1.7-1.4-2.9c-0.1-0.5-0.2-1.1-0.2-1.6C461,444.4,461,443.8,461.1,443.2z"/>
		<path class="st4" d="M491,445.5c-0.1-0.4-0.1-0.9-0.1-1.6c0-0.6-0.1-1.4-0.3-2.2c-0.4,0.4-0.9,1-1.4,1.5c-0.5,0.6-1,1.2-1.6,1.7
			c-0.5,0.6-1.1,1-1.7,1.5c-0.6,0.4-1.1,0.7-1.7,0.8c-0.4,0.1-0.9,0.1-1.3,0c-0.4-0.1-0.8-0.2-1.1-0.3c-0.9-0.5-1.6-1-2-1.5
			c-0.5-0.6-0.8-1.2-0.9-2.1c-0.1-0.4-0.1-0.8-0.1-1.2c0-0.4,0-0.9,0-1.4c0.1-2.4,0.7-4.7,1.7-6.9c1-2.2,2.3-4.2,4.1-6
			c0.7-0.7,1.4-1.2,2.1-1.5c0.7-0.3,1.5-0.5,2.3-0.7c0.3-0.1,0.7-0.1,1.1-0.1c0.4,0,0.8-0.1,1.1-0.1c0.3-0.1,0.6-0.2,0.8-0.3
			c0.2-0.1,0.4-0.1,0.7-0.2c0.4-0.1,0.8-0.1,1.1,0c0.3,0.1,0.6,0.2,0.8,0.3c0.2,0.2,0.4,0.4,0.5,0.6c0.1,0.2,0.2,0.5,0.3,0.8
			c0.1,0.4,0.1,0.8,0,1.1c-0.1,0.4-0.1,0.7-0.2,1.1l-0.7,12.1c0.1,0.6,0.1,1.2,0.2,1.8c0.1,0.5,0.1,1,0,1.5c0,0.1,0,0.3-0.1,0.5
			c0,0.2-0.1,0.4-0.2,0.6c-0.1,0.2-0.3,0.4-0.5,0.6c-0.2,0.2-0.5,0.3-0.8,0.4c-0.5,0.1-0.8,0.1-1.1,0.1c-0.3,0-0.5-0.1-0.7-0.1
			c-0.2-0.1-0.3-0.2-0.4-0.3C491.1,445.8,491.1,445.7,491,445.5z M482.5,440.2c0,0.2,0,0.5,0,0.9c0,0.4,0,0.8,0.1,1.2
			c0.1,0.4,0.2,0.7,0.4,1c0.2,0.3,0.5,0.4,0.9,0.3c0.6-0.1,1.2-0.4,1.6-0.7c0.5-0.4,0.9-0.8,1.3-1.3c0.5-0.6,1.1-1.3,1.6-2.1
			c0.5-0.8,1-1.5,1.5-2.3c0.4-0.8,0.8-1.6,1.1-2.4c0.3-0.8,0.5-1.6,0.6-2.4c0-0.4,0-1,0-1.5c0-0.6-0.1-1.1-0.2-1.5
			c0-0.2-0.1-0.4-0.2-0.5c-0.1-0.2-0.3-0.2-0.6-0.2c-0.7,0.1-1.4,0.4-2.1,0.8c-0.7,0.4-1.3,0.9-1.9,1.5c-0.6,0.6-1.1,1.3-1.6,2
			c-0.5,0.8-0.9,1.5-1.3,2.3c-0.4,0.8-0.6,1.6-0.9,2.5C482.7,438.7,482.6,439.4,482.5,440.2z"/>
		<path class="st4" d="M513.4,423.6c-0.5,0.1-1,0.3-1.6,0.7c-0.5,0.3-1.1,0.8-1.6,1.3c-0.6,0.5-1.1,1.1-1.7,1.8
			c-0.6,0.6-1.1,1.3-1.6,2c-0.3,0.3-0.5,0.6-0.8,0.9c-0.2,0.3-0.5,0.5-0.8,0.7c-0.1,0.4-0.3,0.9-0.4,1.4c-0.1,0.6-0.2,1.2-0.3,1.9
			c-0.1,0.7-0.2,1.4-0.3,2.1c-0.1,0.7-0.1,1.4-0.1,2c0,0.3,0,0.6,0,0.9c0,0.3,0,0.6,0,1c0,0.3,0,0.7,0,1.1c0,0.4,0,0.8-0.1,1.3
			c0,0.3-0.1,0.5-0.2,0.7c-0.1,0.2-0.3,0.4-0.4,0.5c-0.2,0.1-0.3,0.2-0.5,0.3c-0.2,0.1-0.3,0.1-0.4,0.1c-0.6,0.1-1,0.1-1.4-0.1
			c-0.4-0.2-0.7-0.7-0.8-1.4c0-0.2-0.1-0.4-0.1-0.7c0-0.2,0-0.5,0-0.8c0.1-1.4,0.1-2.8,0.2-3.9c0.1-1.2,0.2-2.3,0.3-3.3
			c0.1-1,0.3-2,0.4-2.9c0.2-0.9,0.3-1.8,0.5-2.7c0.2-0.9,0.3-1.9,0.5-2.8c0.2-1,0.4-2.1,0.6-3.2c0-0.3,0.2-0.5,0.6-0.8
			c0.3-0.2,0.7-0.4,1.1-0.5c0.6-0.1,1-0.1,1.4,0.1c0.4,0.2,0.6,0.5,0.7,1c0,0,0,0.1,0,0.3c0,0.1,0,0.3-0.1,0.4l-0.5,2.5
			c0.5-0.6,1.1-1.2,1.6-1.8c0.6-0.6,1.2-1.2,1.8-1.7c0.6-0.5,1.3-1,1.9-1.3c0.7-0.4,1.3-0.6,2-0.8c1.4-0.3,2.6-0.1,3.5,0.5
			c0.9,0.6,1.5,1.7,1.8,3.3c0.2,0.9,0.2,2,0.1,3.2c-0.1,1.2-0.3,2.5-0.5,3.9c-0.2,1.4-0.5,2.9-0.8,4.5c-0.3,1.6-0.5,3.1-0.7,4.7
			c-0.1,0.4-0.1,0.8-0.2,1.1c-0.1,0.3-0.2,0.6-0.4,0.8c-0.2,0.2-0.4,0.4-0.6,0.5c-0.2,0.1-0.5,0.2-0.9,0.3c-0.6,0.1-1,0.1-1.2-0.1
			c-0.3-0.2-0.4-0.5-0.5-1c-0.1-0.4-0.1-0.9-0.1-1.5c0-0.6,0.1-1.3,0.2-2c0.1-0.7,0.2-1.6,0.4-2.4c0.2-0.9,0.3-1.7,0.5-2.6
			c0.2-0.7,0.3-1.4,0.4-2.2c0.1-0.7,0.3-1.4,0.4-2.1c0.1-0.7,0.2-1.3,0.2-1.9c0-0.6,0-1.1-0.1-1.6c-0.1-0.5-0.3-0.8-0.5-1.1
			C514.3,423.6,513.9,423.5,513.4,423.6z"/>
		<path class="st4" d="M535.3,437.2c-0.1-0.4-0.1-0.9-0.1-1.6c0-0.6-0.1-1.4-0.3-2.2c-0.4,0.4-0.9,1-1.4,1.6c-0.5,0.6-1,1.2-1.6,1.7
			c-0.5,0.6-1.1,1-1.7,1.5c-0.6,0.4-1.1,0.7-1.7,0.8c-0.4,0.1-0.9,0.1-1.3,0c-0.4-0.1-0.8-0.2-1.1-0.3c-0.9-0.5-1.6-1-2-1.5
			c-0.5-0.5-0.8-1.2-0.9-2.1c-0.1-0.4-0.1-0.8-0.1-1.2c0-0.4,0-0.9,0-1.4c0.1-2.4,0.7-4.7,1.7-6.9c1-2.2,2.3-4.2,4.1-6
			c0.7-0.7,1.4-1.2,2.1-1.5c0.7-0.3,1.5-0.5,2.3-0.7c0.3-0.1,0.7-0.1,1.1-0.1c0.4,0,0.8-0.1,1.2-0.1c0.3-0.1,0.6-0.2,0.8-0.3
			c0.2-0.1,0.4-0.1,0.7-0.2c0.4-0.1,0.8-0.1,1.1,0c0.3,0.1,0.6,0.2,0.8,0.3c0.2,0.2,0.4,0.4,0.5,0.6c0.1,0.2,0.2,0.5,0.3,0.8
			c0.1,0.4,0.1,0.8,0,1.1c-0.1,0.4-0.1,0.7-0.2,1.1l-0.7,12.1c0.1,0.6,0.1,1.2,0.2,1.8c0.1,0.5,0.1,1,0,1.5c0,0.1,0,0.3-0.1,0.5
			c0,0.2-0.1,0.4-0.2,0.6c-0.1,0.2-0.3,0.4-0.5,0.6c-0.2,0.2-0.5,0.3-0.8,0.4c-0.5,0.1-0.8,0.1-1.1,0.1c-0.3,0-0.5-0.1-0.7-0.1
			c-0.2-0.1-0.3-0.2-0.4-0.3C535.4,437.5,535.3,437.4,535.3,437.2z M526.8,431.9c0,0.2,0,0.5,0,0.9c0,0.4,0,0.8,0.1,1.2
			c0.1,0.4,0.2,0.7,0.4,1c0.2,0.3,0.5,0.4,0.9,0.3c0.6-0.1,1.2-0.4,1.6-0.7c0.5-0.4,0.9-0.8,1.3-1.3c0.5-0.6,1.1-1.3,1.6-2.1
			c0.5-0.8,1-1.5,1.5-2.4c0.4-0.8,0.8-1.6,1.1-2.4c0.3-0.8,0.5-1.6,0.6-2.4c0-0.4,0-0.9,0-1.5c0-0.6-0.1-1.1-0.2-1.5
			c0-0.2-0.1-0.4-0.2-0.5c-0.1-0.2-0.3-0.2-0.6-0.2c-0.7,0.1-1.4,0.4-2.1,0.8c-0.7,0.4-1.3,0.9-1.9,1.5c-0.6,0.6-1.1,1.3-1.6,2
			c-0.5,0.7-0.9,1.5-1.3,2.3c-0.4,0.8-0.6,1.6-0.9,2.5C527,430.3,526.8,431.1,526.8,431.9z"/>
		<path class="st4" d="M550.9,431.5c0.2,1,0,2-0.7,2.8c-0.6,0.9-1.4,1.4-2.4,1.6c-0.8,0.1-1.5,0-2.1-0.4c-0.6-0.4-1-1-1.2-1.8
			c-0.2-1,0-2,0.7-2.9c0.7-0.9,1.5-1.5,2.5-1.7c0.8-0.1,1.4,0,2,0.5C550.4,430.1,550.7,430.7,550.9,431.5z M553.1,403
			c0.1,0.6,0,1.6-0.4,2.9c-0.3,1-0.7,3.5-1.4,7.3c-0.7,3.8-1.1,6.2-1.2,7.1c-0.1,0.9-0.2,2-0.2,3.3c0,1-0.6,1.6-1.7,1.8
			c-1.4,0.3-2.3-0.3-2.6-1.7c-0.3-1.5,0.1-4.6,1.1-9.2c1-4.6,1.8-7.8,2.5-9.6c0.7-1.8,1.4-2.7,2.3-2.9
			C552.4,401.8,552.9,402.1,553.1,403z"/>
		<path class="st4" d="M566.1,428.7c0.2,1,0,2-0.7,2.8c-0.6,0.9-1.4,1.4-2.4,1.6c-0.8,0.1-1.5,0-2.1-0.4c-0.6-0.4-1-1-1.2-1.8
			c-0.2-1,0-2,0.7-2.9c0.7-0.9,1.5-1.5,2.5-1.7c0.8-0.1,1.4,0,2,0.5C565.6,427.3,565.9,427.9,566.1,428.7z M568.3,400.1
			c0.1,0.6,0,1.6-0.4,3c-0.3,1-0.7,3.5-1.4,7.3c-0.7,3.8-1.1,6.2-1.2,7.1c-0.1,0.9-0.2,2-0.2,3.3c0,1-0.6,1.6-1.7,1.8
			c-1.4,0.3-2.3-0.3-2.6-1.7c-0.3-1.5,0.1-4.6,1.1-9.2c1-4.6,1.8-7.8,2.5-9.6c0.7-1.8,1.4-2.7,2.3-2.9
			C567.6,398.9,568.1,399.3,568.3,400.1z"/>
		<path class="st4" d="M581.3,425.8c0.2,1,0,2-0.7,2.8c-0.6,0.9-1.4,1.4-2.4,1.6c-0.8,0.1-1.5,0-2.1-0.4c-0.6-0.4-1-1-1.2-1.8
			c-0.2-1,0-2,0.7-2.9c0.7-0.9,1.5-1.5,2.5-1.7c0.8-0.1,1.4,0,2,0.5C580.8,424.4,581.1,425,581.3,425.8z M583.4,397.3
			c0.1,0.6,0,1.6-0.4,2.9c-0.3,1-0.7,3.5-1.4,7.3c-0.7,3.8-1.1,6.2-1.2,7.1c-0.1,0.9-0.2,2-0.2,3.3c0,1-0.6,1.6-1.7,1.8
			c-1.4,0.3-2.3-0.3-2.6-1.7c-0.3-1.5,0.1-4.6,1.1-9.2c1-4.6,1.8-7.8,2.5-9.6c0.7-1.8,1.4-2.7,2.3-2.9
			C582.8,396.1,583.3,396.4,583.4,397.3z"/>
	</g>
</g>
</svg>
