<?xml version="1.0" encoding="utf-8"?>
<!-- Generator: Adobe Illustrator 19.0.0, SVG Export Plug-In . SVG Version: 6.00 Build 0)  -->
<svg version="1.1" id="Layer_1" xmlns="http://www.w3.org/2000/svg" xmlns:xlink="http://www.w3.org/1999/xlink" x="0px" y="0px"
	 viewBox="-703 285 512 512" style="enable-background:new -703 285 512 512;" xml:space="preserve">
<style type="text/css">
	.st0{fill:#FCC434;}
</style>
<g transform="translate(0 -1)">
	<g>
		<g>
			<path class="st0" d="M-566.5,627.3h170.7c4.7,0,8.5-3.8,8.5-8.5v-85.3v-85.3v-85.3c0-4.7-3.8-8.5-8.5-8.5h-170.7
				c-4.7,0-8.5,3.8-8.5,8.5v85.3v85.3v85.3C-575,623.5-571.2,627.3-566.5,627.3z M-404.3,524.9h-153.6v-68.3h153.6V524.9z
				 M-404.3,610.3h-153.6V542h153.6V610.3z M-557.9,371.3h153.6v68.3h-153.6V371.3z"/>
			<path class="st0" d="M-361.7,414h34.1c4.7,0,8.5-3.8,8.5-8.5v-34.1c0-4.7-3.8-8.5-8.5-8.5h-34.1c-4.7,0-8.5,3.8-8.5,8.5v34.1
				C-370.2,410.2-366.4,414-361.7,414z M-353.1,379.9h17.1v17.1h-17.1V379.9z"/>
			<path class="st0" d="M-361.7,482.3h34.1c4.7,0,8.5-3.8,8.5-8.5v-34.1c0-4.7-3.8-8.5-8.5-8.5h-34.1c-4.7,0-8.5,3.8-8.5,8.5v34.1
				C-370.2,478.4-366.4,482.3-361.7,482.3z M-353.1,448.1h17.1v17.1h-17.1V448.1z"/>
			<path class="st0" d="M-361.7,550.5h34.1c4.7,0,8.5-3.8,8.5-8.5v-34.1c0-4.7-3.8-8.5-8.5-8.5h-34.1c-4.7,0-8.5,3.8-8.5,8.5V542
				C-370.2,546.7-366.4,550.5-361.7,550.5z M-353.1,516.4h17.1v17.1h-17.1V516.4z"/>
			<path class="st0" d="M-361.7,618.8h34.1c4.7,0,8.5-3.8,8.5-8.5v-34.1c0-4.7-3.8-8.5-8.5-8.5h-34.1c-4.7,0-8.5,3.8-8.5,8.5v34.1
				C-370.2,615-366.4,618.8-361.7,618.8z M-353.1,584.7h17.1v17.1h-17.1V584.7z"/>
			<path class="st0" d="M-566.5,712.7h238.9c4.7,0,8.5-3.8,8.5-8.5v-51.2c0-4.7-3.8-8.5-8.5-8.5h-238.9c-4.7,0-8.5,3.8-8.5,8.5v51.2
				C-575,708.8-571.2,712.7-566.5,712.7z M-557.9,661.5h221.9v34.1h-221.9V661.5z"/>
			<path class="st0" d="M-199.5,780.9h-102.4v-34.1h8.5c4.7,0,8.5-3.8,8.5-8.5V328.7v-34.1c0-4.7-3.8-8.5-8.5-8.5h-307.2
				c-4.7,0-8.5,3.8-8.5,8.5v34.1v409.6c0,4.7,3.8,8.5,8.5,8.5h8.5v34.1h-102.4c-4.7,0-8.5,3.8-8.5,8.5s3.8,8.5,8.5,8.5h494.9
				c4.7,0,8.5-3.8,8.5-8.5C-191,784.8-194.8,780.9-199.5,780.9z M-301.9,729.7h-8.5h-273.1h-8.5V337.2h290.1V729.7z M-592.1,303.1
				h290.1v17.1h-290.1V303.1z M-319,746.8v34.1h-256v-34.1H-319z"/>
			<path class="st0" d="M-532.3,388.4c-4.7,0-8.5,3.8-8.5,8.5V414c0,4.7,3.8,8.5,8.5,8.5c4.7,0,8.5-3.8,8.5-8.5v-17.1
				C-523.8,392.2-527.6,388.4-532.3,388.4z"/>
			<path class="st0" d="M-498.2,388.4c-4.7,0-8.5,3.8-8.5,8.5V414c0,4.7,3.8,8.5,8.5,8.5s8.5-3.8,8.5-8.5v-17.1
				C-489.7,392.2-493.5,388.4-498.2,388.4z"/>
			<path class="st0" d="M-464.1,388.4c-4.7,0-8.5,3.8-8.5,8.5V414c0,4.7,3.8,8.5,8.5,8.5c4.7,0,8.5-3.8,8.5-8.5v-17.1
				C-455.5,392.2-459.4,388.4-464.1,388.4z"/>
			<path class="st0" d="M-429.9,388.4c-4.7,0-8.5,3.8-8.5,8.5V414c0,4.7,3.8,8.5,8.5,8.5c4.7,0,8.5-3.8,8.5-8.5v-17.1
				C-421.4,392.2-425.2,388.4-429.9,388.4z"/>
			<path class="st0" d="M-532.3,507.9c4.7,0,8.5-3.8,8.5-8.5v-17.1c0-4.7-3.8-8.5-8.5-8.5c-4.7,0-8.5,3.8-8.5,8.5v17.1
				C-540.9,504-537,507.9-532.3,507.9z"/>
			<path class="st0" d="M-498.2,507.9c4.7,0,8.5-3.8,8.5-8.5v-17.1c0-4.7-3.8-8.5-8.5-8.5s-8.5,3.8-8.5,8.5v17.1
				C-506.7,504-502.9,507.9-498.2,507.9z"/>
			<path class="st0" d="M-464.1,507.9c4.7,0,8.5-3.8,8.5-8.5v-17.1c0-4.7-3.8-8.5-8.5-8.5c-4.7,0-8.5,3.8-8.5,8.5v17.1
				C-472.6,504-468.8,507.9-464.1,507.9z"/>
			<path class="st0" d="M-429.9,507.9c4.7,0,8.5-3.8,8.5-8.5v-17.1c0-4.7-3.8-8.5-8.5-8.5c-4.7,0-8.5,3.8-8.5,8.5v17.1
				C-438.5,504-434.6,507.9-429.9,507.9z"/>
			<path class="st0" d="M-532.3,593.2c4.7,0,8.5-3.8,8.5-8.5v-17.1c0-4.7-3.8-8.5-8.5-8.5c-4.7,0-8.5,3.8-8.5,8.5v17.1
				C-540.9,589.4-537,593.2-532.3,593.2z"/>
			<path class="st0" d="M-498.2,593.2c4.7,0,8.5-3.8,8.5-8.5v-17.1c0-4.7-3.8-8.5-8.5-8.5s-8.5,3.8-8.5,8.5v17.1
				C-506.7,589.4-502.9,593.2-498.2,593.2z"/>
			<path class="st0" d="M-464.1,593.2c4.7,0,8.5-3.8,8.5-8.5v-17.1c0-4.7-3.8-8.5-8.5-8.5c-4.7,0-8.5,3.8-8.5,8.5v17.1
				C-472.6,589.4-468.8,593.2-464.1,593.2z"/>
			<path class="st0" d="M-429.9,593.2c4.7,0,8.5-3.8,8.5-8.5v-17.1c0-4.7-3.8-8.5-8.5-8.5c-4.7,0-8.5,3.8-8.5,8.5v17.1
				C-438.5,589.4-434.6,593.2-429.9,593.2z"/>
		</g>
	</g>
</g>
</svg>
