<?xml version="1.0" encoding="utf-8"?>
<!-- Generator: Adobe Illustrator 19.0.0, SVG Export Plug-In . SVG Version: 6.00 Build 0)  -->
<svg version="1.1" id="Capa_1" xmlns="http://www.w3.org/2000/svg" xmlns:xlink="http://www.w3.org/1999/xlink" x="0px" y="0px"
	 viewBox="-852 434.1 213.9 213.9" style="enable-background:new -852 434.1 213.9 213.9;" xml:space="preserve">
<style type="text/css">
	.st0{fill:#FCC434;}
</style>
<path class="st0" d="M-638.6,557.7l-30.9-61.9c0.7-0.9,1.1-2,1.1-3.2c0-2.9-2.3-5.2-5.2-5.2h-58.3c2.5-0.8,4.3-3.2,4.3-5.9l0,0
	c0-3.5-2.8-6.2-6.2-6.2h-2.3c3.4-2.7,5.6-6.8,5.6-11.5c0-8-6.5-14.5-14.5-14.5c-8,0-14.5,6.5-14.5,14.5c0,4.7,2.2,8.8,5.6,11.5h-2.3
	c-3.5,0-6.2,2.8-6.2,6.2l0,0c0,2.8,1.8,5.1,4.3,5.9h-57.7l0,0l0,0h-0.6c-2.9,0-5.2,2.3-5.2,5.2c0,1.4,0.5,2.6,1.4,3.5l-31.2,62.5
	c-0.5,1-0.6,2-0.5,3c0,0.2,0,0.4,0,0.6c1.8,18.3,17.2,32.7,36,32.7c18.8,0,34.2-14.3,36-32.7c0-0.2,0-0.4,0-0.6c0.2-1,0-2.1-0.5-3
	l-30.4-60.8h58.7v119.4h-48.2c-5.8,0-10.5,4.7-10.5,10.5c0,2.8,2.2,5,5,5h121.3c2.8,0,5-2.2,5-5c0-5.8-4.7-10.5-10.5-10.5H-738
	V497.8h58.2l-29.9,59.8c-0.5,1-0.6,2-0.5,3c0,0.2,0,0.4,0,0.6c1.8,18.3,17.2,32.7,36,32.7c18.8,0,34.2-14.3,36-32.7
	c0-0.2,0-0.4,0-0.6C-638,559.7-638.1,558.7-638.6,557.7z M-840.4,558.8l24.4-49l24.4,49H-840.4z M-698.6,557.8l24.4-49l24.4,49
	H-698.6z"/>
</svg>
